<svg id="Camada_1" data-name="Camada 1" xmlns="http://www.w3.org/2000/svg" viewBox="0 0 1023.92 1023.84"><defs><style>.cls-1{fill:#fefefe;}.cls-2{fill:#050202;}.cls-3{fill:#fda803;}.cls-4{fill:#990a42;}.cls-5{fill:#c58814;}.cls-6{fill:#fd777d;}</style></defs><title>Nosso Corre</title><path class="cls-1" d="M1025,1024.93H1V1.09H1025ZM808.46,518c1.85,2.79,5,2.72,6.1-.64a23.39,23.39,0,0,0,.79-9.58c-1.21-11.48-2.76-22.92-4.19-34.37h-.26l.09.25c.44.09,1,.37,1.3.23q25-9.93,50-19.95c4.24-1.7,8.57-3.24,12.6-5.34,4.38-2.27,5.76-6.28,3.82-9.33-3.46-5.42-16.91-5.37-20.93.1,0,.07.09.29.15.44l0-.13c-4,1.46-8.07,2.78-12,4.42-10.73,4.5-21.39,9.14-32.1,13.69-3.58,1.52-5.83.31-7.07-3.4-2.52-7.55-5-15.16-7.92-22.53a47.53,47.53,0,0,0-6.7-11.76c-2.58-3.25-6.79-2.44-8.39,1.36-3.25,7.76-1.41,15.67,0,23.5,0,.12.59.14.89.2l5,15.19a19,19,0,0,0-.14,4.31c1.9,9.7,3.62,19.43,6,29a116.24,116.24,0,0,0,6.55,19.06c1,2.29,4.25,3.59,6.47,5.34Zm-561.95-8.44c-.61,3.79-1.56,7.57-1.76,11.38-1,19,2.74,36.82,13,53,.31,1.17.33,2.54,1,3.48,7.79,11.37,16.75,21.58,28.85,28.61,12.67,7.35,24.27,16.55,39.45,19.19,18.81,3.27,37.5,5.21,56.42,1.49,9.83-1.94,19.64-4,29.62-6-.44,1.39-1,2.83-1.35,4.3-2.86,10.47-6.74,20.79-8.33,31.45-4.86,32.6,2.54,61.34,28.38,83.84a82.68,82.68,0,0,0,46.07,20.15c12.5,1.46,24.53-.57,36.46-3.89,2.61-.72,4.7-1.14,6,2.25,4.34,11.34,8.88,22.61,13.41,33.88,8.61,21.37,17.16,42.76,25.94,64.06,4.07,9.89,10.88,13.61,21.19,11,19.74-4.94,39.46-10,58.95-15.81,13.66-4.06,17-11.94,11.6-25-5-12.13-10.45-24.07-15.39-36.21-5.17-12.71-9.8-25.63-15-38.33-6.55-16-8.52-32.25-2.89-48.88,2.72-8,5.94-15.92,8.87-23.68,4.74,2.59,8.46,5,12.49,6.76,18,7.67,36.6,6.23,54.84,1.54,8.73-2.24,16.79-7.1,25.15-10.8a17.5,17.5,0,0,0,10-10.73c1.09-3.27,2.85-5.11,6.66-5.51a16.11,16.11,0,0,0,8.12-3.47c12.41-10.32,24-21.49,33.15-34.89a18,18,0,0,0,3-11c-.47-4.81.41-8.24,4.12-11.13,10.31-8,15.2-19.56,16.86-31.59,1.62-11.69.58-23.87-.39-35.74A36.43,36.43,0,0,0,791,510.76c-4.36-4.47-7.89-8.68-6.89-15.27.22-.93.43-1.85.65-2.78q-.33-16.18-.65-32.36c-.28-3.89-.33-7.81-.9-11.65-.51-3.38-.88-7.11-2.58-9.91-6.15-10.14-12.64-20.08-19.36-29.85-5.89-8.57-12.78-16.31-18-25.53a81.48,81.48,0,0,0-24.06-26.73c-12.54-8.94-25.2-17-39.8-22l-2.1-.72-3.31-.94c-8.73-4.23-17.31-8.84-26.26-12.55a83.89,83.89,0,0,0-17.33-4.62c-14.84-2.66-29.7-3.9-44.51.64a6.83,6.83,0,0,1-5.53-1.07c-7.08-6.15-15.64-8.6-24.48-10.56-12.62-2.8-25-3.28-36.91,3a5.88,5.88,0,0,1-4,.61c-16.7-5.22-33.48-4.14-50.43-1.36-14.85,2.45-27.3,8.86-37.47,20a6.28,6.28,0,0,1-5.49,1.31c-10.77-3.83-21.48-2.55-32.06.2-17.33,4.52-32.44,13.57-46.37,24.48-6,4.74-12.13,8.93-19.44,11.39-2.42.82-4.53,2.59-6.78,3.92-2.91,2.52-6,4.88-8.7,7.6-12.14,12.11-20,26.94-26.46,42.57a8.44,8.44,0,0,1-6.3,5.51c-2.69.7-6,2.24-7.32,4.43a55.83,55.83,0,0,0-8.75,26c.75,6.14,1.16,12.35,2.4,18.38.7,3.39.49,5.75-1.7,8.62C253.73,489.91,247.85,498.66,246.51,509.55ZM150.87,868l1.66,1.36c1.37-1.15,2.84-2.2,4.09-3.47,4.63-4.74,9.2-9.54,13.77-14.35,7.36-7.75,14.83-15.41,22-23.31,11.87-13,23.58-26.16,35.31-39.29,10.45-11.7,22.35-22,31.14-35.37,6-9.08,14.89-16.22,22.56-24.17,3.51-3.64,7.25-7,10.72-10.72.86-.91,1.82-2.86,1.41-3.57a5.75,5.75,0,0,0-3.71-2.17c-2.15-.38-4.42,0-6.62-.24-17.08-1.53-34.18-3-51.24-4.75-8.6-.88-17.19-2-25.67-3.64-6.15-1.17-7.85-5.3-5.15-10.92,2.17-4.54,4-9.35,6.88-13.43,9.47-13.55,12.07-28.84,12.2-44.83,0-1.42-.82-2.83-1.26-4.25-1.35.8-3.12,1.28-4,2.43-9.39,12.58-18.51,25.36-28,37.87-6.83,9-14.29,17.56-21.09,26.59-6,8-11.42,16.46-17.27,24.58-4.13,5.73-8.7,11.14-12.81,16.88-2.56,3.56-1.33,5.86,3.08,6.24,8.63.74,17.27,1.35,25.91,2,12.56.95,25.12,1.84,37.66,2.91,1.78.15,3.48,1.12,5.72,1.88-.79,2.46-.93,4.89-2.17,6.49-10.45,13.59-21.24,26.91-31.63,40.54-6.93,9.09-13.42,18.52-20,27.9-.72,1-1.15,3.53-.6,4a8.7,8.7,0,0,0,4.85,1.57c1.3.06,2.62-1,4-1.24,5-.91,9.76-4.19,16.71-1.86C168.56,842.18,158,854,150.87,868ZM571.26,291.91c0-.59,0-1.18,0-1.77a27.83,27.83,0,0,0-3.89-.84c-13-1-26.06-2.61-39.1-2.61-22.86,0-45.74.53-68.56,1.74-18.47,1-36.81,3.19-54.37,10-7.68,3-16.15,3.8-24,6.36-10.19,3.32-20.24,7.15-30.16,11.23-7.07,2.9-14.24,5.95-20.61,10.09-7.09,4.62-13.35,10.52-19.94,15.89-2.53,2.06-4.64,4.49-8.71,3.1-1.26-.42-4.44,1.45-5,2.94-3.78,9.45-11.7,15.56-17.94,23-1,1.14-3.18,2.32-4.35,2a53.87,53.87,0,0,1-11.81-4.89c-6.73-4-13.13-8.56-19.69-12.86-4.67-3.05-10.77-2.47-13.07,1.17-2,3.13-.66,5.7,4.82,9.63,9.32,6.7,18.66,13.37,27.89,20.19,5.11,3.77,5.48,6.23,2.06,11.47-10.51,16.06-17.85,33.48-23.3,51.88-3.92,13.21-8,26.25-10.51,39.89-3.25,17.62-5.23,35.21-4.06,53,.52,7.79,1.54,15.83,4.11,23.14,2.9,8.24,7.32,16.08,12,23.55,6.22,10,12.34,20.33,20.22,28.95,13.61,14.88,31.25,24.63,50.15,30.89,13.17,4.37,27.35,5.81,41.16,8.08,3.57.59,5.14,1.43,4.67,5.14-1.24,9.69-3,19.36-3.4,29.08-.66,15.42-.44,30.88-.42,46.32,0,1,1.49,2,2.29,3.06.72-.86,1.88-1.63,2.08-2.6,1.4-6.93,2.64-13.9,3.85-20.87,2.2-12.69,4.11-25.44,6.59-38.08,1.95-10,4.75-19.77,6.83-29.72,1.42-6.77-1.66-10.3-8.5-10.41-4.86-.09-9.72,0-14.58,0-21-.21-39.5-8.9-58-17.25-15.25-6.89-25.68-19.8-35.17-32.95-4.82-6.68-6.93-15.27-10.61-22.83-10.51-21.58-10.71-44.52-7.2-67.27,3-19.39,8.6-38.4,13.42-57.49a41.58,41.58,0,0,1,5.78-12.89c12-17.7,23.77-35.62,36.79-52.55a226.83,226.83,0,0,1,29.26-31.29c17.42-15.45,38.5-24.05,61.14-29.18,21.79-4.94,43.62-9.85,65.13-15.88,13.88-3.9,27.6-7.63,42.13-7.55,15.95.08,31.91,0,47.87.12,7.41.07,14.81.59,22.22.77A21.1,21.1,0,0,0,571.26,291.91ZM645.62,702c-4.32-1.79-7.82-.54-8.87,3.92-1.11,4.66,2.32,6.74,6,8.31a28,28,0,0,0,5.29,2c21.66,4.54,42.75,1.28,63.36-5.49,8.8-2.89,17.13-7.23,25.58-11.13,3.59-1.66,6-1,7.77,2.49,3,5.94,5.95,11.92,9.18,17.73,1.71,3,4.27,6.63,8,4.89,2.08-1,2.94-4.88,4-7.6a5.44,5.44,0,0,0-.48-3.67c-2.47-5.61-5.1-11.14-7.66-16.7-3.66-7.94-2.72-12.67,4.58-17.51,14.16-9.39,24-22.6,32.94-36.54,5.37-8.33,10.12-17.07,15.45-25.42,2.74-4.28,5.24-4.41,9.47-1.72,8.63,5.48,17.25,11,26,16.23,1.34.8,3.43.36,5.16.49-.45-1.81-.35-4.11-1.45-5.35a122.21,122.21,0,0,0-11.71-11.72C831,609,823.63,602.74,815.92,597,809,591.9,802,594.29,799,602.19c-.34.88-.68,1.76-1.09,2.61-7,15-14,30-21.19,44.85-1.83,3.77-3.83,7.84-6.84,10.58a71.34,71.34,0,0,1-15.39,10.88c-15.42,7.89-31,15.51-46.79,22.61a93.9,93.9,0,0,1-43.74,8.36C657.85,701.76,651.73,702,645.62,702Zm-150-545.64h-.43c0-4.73.07-9.47,0-14.2-.13-7.28-1.8-9.85-6.13-9.71s-6.09,2.82-5.88,9.94q.86,28.83,2,57.65c.6,15.43,1.23,30.86,2.18,46.28.44,7.2,1.49,14.39,2.65,21.53.26,1.62,2.07,3,3.17,4.46,1.18-1.44,3.12-2.76,3.4-4.37a62.59,62.59,0,0,0,.59-11.3Q496.41,206.52,495.59,156.38ZM397,282.89a53.27,53.27,0,0,0-1.78-6.16c-3.38-7.75-6.88-15.45-10.34-23.16q-15.63-34.71-31.29-69.39a48.08,48.08,0,0,0-4.37-7.28,2.55,2.55,0,0,0-2.35-.77,2.6,2.6,0,0,0-.88,2.3,27.45,27.45,0,0,0,1.7,5.85c4,9.12,8.11,18.14,12,27.28q11.54,26.92,22.84,53.94c2.42,5.8,4.3,11.84,6.83,17.59.74,1.68,2.89,2.74,4.38,4.09ZM706.31,847.36c4.94,0,9.56-4.6,9.65-9.7a7.23,7.23,0,0,0-7.61-7.75c-5,0-9.29,4.12-9.25,8.76C699.14,844,701.94,847.31,706.31,847.36Zm-61.6-619.18c0,4.88,3.23,8.58,7.42,8.65,4.44.09,8.74-4.82,8.73-10,0-4.91-3.48-8.64-8-8.6C648.76,218.3,644.66,223.3,644.71,228.18ZM186.6,244.55c.06,5.25,2.77,7.93,7.85,7.78,4.56-.14,8.53-4.67,8.44-9.62-.08-3.89-3.5-7.49-7-7.42A9.23,9.23,0,0,0,186.6,244.55Zm605,126.75-2.12.13c-1.2,1.67-3.61,3.61-3.31,4.95.43,1.92,2.82,4.73,4.38,4.74,1.72,0,4.66-2.6,4.85-4.3S793,373.15,791.64,371.3ZM571.76,266.51l5.56,5.22c1.47-1.63,4-3.2,4.11-4.91s-2.17-4.05-3.91-4.66C576.52,261.8,574.49,264.35,571.76,266.51ZM483.62,791.24c-2.88-2-4.69-4.22-5.9-3.92a6.24,6.24,0,0,0-3.84,4.24c-.18,1.07,2.34,3.55,3.76,3.64S480.72,793.28,483.62,791.24Zm183.1-51.84-4.54-3.88c-.9,1.28-2.52,2.58-2.48,3.83s1.61,2.87,2.86,3.29C663.28,742.88,664.69,741.05,666.72,739.4Z" transform="translate(-1.03 -1.09)"/><path class="cls-2" d="M784.77,492.71c-.22.93-.43,1.85-.65,2.77-2.62,3.32-1.76,8.25.94,11.93,4.23,5.76,8.81,11.56,11.53,18.06,4.46,10.65,3.55,22.25,3.1,33.56-.61,15.45-5,29.44-17.18,39.93-3.71,3.19-5.25,6.88-4.68,11.67s-.46,9.17-3.75,12.77c-8,8.72-15.82,17.57-24.14,26-4.69,4.74-9.62,9.46-17.1,10-1.78.13-3.67,2.49-5,4.21-2.25,3-3.38,7.34-6.23,9.17-14.22,9.13-29.77,15.25-46.82,16-15.29.63-30.62.36-43.74-9.53-3.47-2.62-5.7-1.15-7.07,2.44-2.64,6.87-5.5,13.67-7.79,20.65-3.51,10.71-5.45,21.86-2.72,32.89A343.22,343.22,0,0,0,636,798.06c5.26,11.25,10,22.77,14.63,34.29,2.19,5.44.49,10.46-4.49,13.53a44.18,44.18,0,0,1-11.12,5c-17.74,4.92-35.59,9.47-53.35,14.3-9,2.44-17-1.3-20.56-10.13q-7.71-19.18-15.24-38.45-11.24-28.83-22.29-57.73c-1.94-5.05-5-6.59-10.45-5.1-4.25,1.16-8.46,2.62-12.8,3.25-20.86,3-40.45-.25-58.07-12.46-14.44-10-25.85-22.46-32-39.26-7.3-19.94-6.74-40.15-1.84-60.39,1.66-6.83,4.54-13.36,6.54-20.12.58-2,.68-4.59-.24-6.19-.5-.86-3.68-.47-5.57-.16-2.15.36-4.16,1.46-6.31,1.9-17.91,3.65-35.91,7.78-54.28,5.52-11.28-1.38-22.37-4.54-33.41-7.42-3.72-1-7.21-3.21-10.48-5.37-10.22-6.73-20.75-13.11-30.25-20.76-6.33-5.1-11.12-12.13-16.59-18.3-10.29-16.22-14-34.08-13-53,.2-3.81,1.15-7.59,1.76-11.37,1.13-1.26,2.55-2.36,3.35-3.81,4.32-7.72,8.69-15.43,12.6-23.36a18.14,18.14,0,0,0,1.92-9.16c-.43-4.78-1.91-9.47-3.09-14.16a34.47,34.47,0,0,0-1.85-4.53,55.83,55.83,0,0,1,8.75-26c1.36-2.19,4.63-3.73,7.32-4.43a8.44,8.44,0,0,0,6.3-5.51c6.48-15.63,14.32-30.46,26.46-42.57,2.72-2.72,5.79-5.08,8.7-7.6,7.35-2.87,15.2-4.92,21.95-8.84,8.72-5.08,16.22-12.23,24.9-17.41,7.59-4.53,15.77-8.7,24.25-11,10.7-2.89,21.91-3.91,33-.39,3.5,1.12,6.69.37,9.46-2.89A49.41,49.41,0,0,1,441,318.57c8.13-5.3,17.2-8.14,26.86-9.61,13.5-2,26.82-2.89,40.3.35,4.24,1,9.31,1.47,13.29.1,8.49-2.91,16.78-5.25,25.79-3.53,11,2.09,22.12,3.47,31.11,11.2,2.89,2.49,6.46,2.55,10.29,1.46a56.21,56.21,0,0,1,13-2.18c24-1,46.48,4.52,67.61,15.86,1.37.73,3.22.58,4.85.84l3.31.94,2.1.72c14.6,4.93,27.26,13,39.8,22a81.48,81.48,0,0,1,24.06,26.73c5.19,9.22,12.08,17,18,25.53,6.72,9.77,13.21,19.71,19.36,29.85,1.7,2.8,2.07,6.53,2.58,9.91.57,3.84.62,7.76.9,11.64-.51,1.36-1.49,2.74-1.46,4.09.16,8.72.51,17.44.9,26.16C783.6,491.31,784.35,492,784.77,492.71Zm-333.2-86.3-.63.66-1.24,1.11-.83.77c-.16.17-.31.33-.45.51A41.78,41.78,0,0,0,443,413c-4.83,4.27-9.42,8.81-14.27,13.06-5.05,4.43-11,6.83-17.78,6.17-5.62-.54-11.19-1.66-16.81-2.26-9.76-1-19.48-1.57-27.45,5.88-6.55,6.82-8.88,15.33-9.74,24.41a6,6,0,0,0,.38,2.32c1.33,4.13,2.71,8.24,4.08,12.36,1.4,3.94,1.94,8.54,4.36,11.69,6.48,8.43,15.43,13.79,25.44,17.29a4.72,4.72,0,0,0,3.17,0c10.87-4.89,22-3.18,32.93-.87,4.19.88,6.1-.44,7.7-3.93,6.37-13.88,8-28.35,6.06-43.4-.57-4.54-.13-9.21-.15-13.82,5.35,9.74,7.34,20.38,8.41,31.27C449,483.72,448,494.17,443.3,504c-.5,1,.36,3.35,1.34,4.29,3.27,3.16,7,5.86,10.34,9,2.18,2,3.83,1.72,5.46-.43,1.9-2.48,3.53-5.21,5.65-7.48,9.87-10.56,23.19-15.39,35.92-21.08,6-2.68,12.32-4.58,18.5-6.83l22.69-.59,4.06.38,1.7.33,10,1.43.09-.86-2.79-.85.15-1.3c1.85.12,3.81-.09,5.54.43,12,3.63,23.84,8.19,36.06,10.94,11.93,2.68,24.56,5.83,35-4.83,5.32-5.46,11.75-10,14-17.88,3-3.9,4.76-7.93.73-12.65,6.29,3.11,7.06,8.7,7.92,14.25-.57,1.66-1.14,3.33-1.74,5.06,6.91-1.58,13.31-2.95,19.66-4.54,4.74-1.2,9.4-2.69,14.1-4l4.47-.14,7.71.17,3,.54,2.75.73,10.12,4.89-.57,1.43c-2.3-.25-4.59-.7-6.89-.72-6-.08-12.21-1.09-17.85.27C669,479,651.06,490,637.13,507.22c-1.34,1.25-3.07,2.27-4,3.78-4.56,7.69-5,15.22.52,22.93,7.32,10.12,16.74,17.92,26.39,25.57,4,3.15,7.72,6.6,11.86,10.16-6.06,3.87-10.9,1.46-15.11-1-7.42-4.28-14.38-9.34-21.54-14.07l-.93,0h0c-5.68-4.48-11.21-9.2-17.14-13.32-2.35-1.63-5.62-1.93-8.48-2.84l0,0-2.9-1.41c-11.37-3.91-22.38-3.74-33.16,2.27-14.49,8.08-25.13,20.82-38,30.81-4.62,2.65-9.15,5.56-15.62,4.49l4.36-6.78,7.6-7.48c1.84-1,4-1.74,5.46-3.16,5.18-5,9.89-10.55,15.19-15.44,13.56-12.49,29.13-19.78,48.13-17.42l17,2.08c1.62-6.29,3.33-12.88,4.82-18.6l-50.9-9.07c-8.11-2.2-16.18-6-24.32-6.2-10.83-.22-21.89,1-32.3,5.52-16.12,7.06-31.37,15.7-44.51,27.23-11,9.68-19.16,22.16-25.72,35.38a10.75,10.75,0,0,0,0,8.15c7.46,16.48,19.67,27.82,38.18,29.25,19.95,1.55,40.05,2.19,60.06,1.77,13.11-.27,26-3.26,35.22-14.46,2.69-3.28,6.16-5.91,8.94-9.13,3.21-3.7,6.69-4.32,10.93-2.13,3.23,1.66,6.55,3.15,9.79,4.79,18.08,9.14,36.91,11.84,55.66,3.3,11.24-5.13,21.36-12.7,32-19.09A37.32,37.32,0,0,1,700,561l.94,1.69c-2.18,1.92-4.23,4-6.57,5.72-5.21,3.79-10.75,7.15-15.83,11.11-20.8,16.26-43.6,20.32-68.53,11.48-5.63-2-11-4.66-16.61-6.81-.86-.34-2.13.39-3.21.63.5.84.79,2.06,1.53,2.45,11.44,6.11,23.45,10.69,36.44,12.08,5.47.58,11.18-.32,16.5.77,10,2.06,18.78-.66,26.35-6.27,11.46-8.5,22.4-17.75,33.08-27.23,6.93-6.15,13.86-8.12,22.41-4.05a165.84,165.84,0,0,0,17.44,7.28,12.47,12.47,0,0,0,7.66-.23c7-2.49,10.22-8.55,10.5-15.31.49-11.81-2.24-22.89-11.18-31.59-5-4.87-6.87-5.23-13.38-2.19-17.69,6.74-35.09,7.8-53-2.84l14.13-1,1.21,0,6.29-.14c21.88.77,38.21-9.31,35-33.23l2.37-10.05.33-1.26c.12-.86.25-1.72.38-2.58,3.35-2.05,3.45,1.23,3.82,2.74,1.86,7.45,3.19,15,5.14,22.48,1.44,5.46,3.91,10.66,5.25,16.14,1.07,4.41-1.86,10.44,5.55,11.82,3,7.18,6,14.36,9.06,21.53.49,1.15,1.17,2.22,1.76,3.32l-.06,9.61-1.63,1.28,1.35,1.73c-.15.95-.31,1.9-.46,2.86-2.32,1.31-3,4.84-1.46,7.65q-.35,2.85-.67,5.7c-1.28.48-2.83.66-3.79,1.5-10.34,9.13-18.45,9.48-29.63,1.23a85.41,85.41,0,0,0-9.81-6.6c-4.88-2.64-10.1-5.32-15.48-1.31-3.64,2.71-7.7,5.41-10.16,9.06-6.09,9.05-14.14,15.94-22.23,23-12.6,10.94-27.32,15.25-43.61,15-19-.27-35.59-7.79-50.94-18.22-3.21-2.19-5.08-2-7.68.14-11.6,9.77-25.33,12.82-40.1,12.73-4.17,0-8.34.5-13.49.84,11,15.74,17.83,33.69,35.59,42.71-6-7.67-14.74-13.14-18.37-22.87a40.22,40.22,0,0,1,6.79,4.87c7.91,6.46,15.65,13.15,23.8,19.29,10,7.53,21.61,4.26,32.6,5l.93-1.46L575.66,622.4l1.94-1.73c19.59,8.5,29.53,27.51,44.29,41.7a13.46,13.46,0,0,0-2.21-6.12c-3.32-5.09-6.79-10.09-10.2-15.13l.31-.32c5.05,2.83,10.07,5.68,15.15,8.44,1.32.72,2.82,1.64,4.2,1.59,5.72-.19,11.48-1.43,17.12-1,13.27,1.08,26.5,1.74,39.51-1.48,8.92-2.21,18.06-5.16,23.51-13.09A50.7,50.7,0,0,0,718,598.91c-.36-2.62-.35-5.28-.5-7.93l1.45-.27c.91,1.59,1.79,3.2,2.72,4.78,1.54,2.64,3.11,5.27,4.67,7.91,1.39,11.44.8,22.53-5.76,32.57a36,36,0,0,0-5.23,3.14c-3.46,3-6.27,6.93-10.12,9.12-19.18,10.87-39.53,13.94-61,7.94-3.61-1-7.33-1.64-11-2.45l-.85,1.65c3.71,3,7,7.25,11.21,8.74,18.76,6.61,37.69,6.42,56.15-1.44a46.89,46.89,0,0,0,22.71-19.95c.82-1.42,2.73-3.26-.49-4.35,4.51-7.25,6.48-15.23,6.83-23.69a14.54,14.54,0,0,1,1-3.37c9.39,6.23,4.43,15.18,3.27,24.23,9.7-4.26,14.9-10.85,18.48-18.89,2.14-4.79,1.18-6-3.94-7.76a111.63,111.63,0,0,1-16.12-6.58C724.84,598.76,724,591.52,722,585a21.08,21.08,0,0,1,6.33,4.62c13.22,13.23,32.46,7.95,42.61-3.52.31-.35.14-1.11.19-1.68l0,.12,1.61-1.94,2.3-4.32c1-.72,2.68-1.22,3.07-2.21a107.35,107.35,0,0,0,5.18-14.94c3.18-13.7.37-26.31-7-38.29a31.49,31.49,0,0,1-4.53-14c-.69-10.51,0-21.09-.41-31.63-.16-4.25.19-9.07-4-12.21a9.8,9.8,0,0,1-1.14-2.47c-1.69-11.41-7.27-21.12-14.21-29.86-6.61-8.32-14.31-15.76-21.53-23.58l-6.11-8.8a18,18,0,0,0-9-13,80.62,80.62,0,0,1-19.4-15c-10.43-11.07-24.28-17.13-39-8.87C647,369,637.3,374.81,627.49,380.51a13,13,0,0,1-3.6-.7c-9.07-4.68-18.25-9.19-27-14.38-3.17-1.88-5.51-5.32-7.89-8.32-2.92-3.68-5.49-7.65-8.21-11.49a2,2,0,0,0-.53-.77c-5.68-7.93-13.19-13.35-21.52-18.51-16-9.9-31.88-7.51-44,2.84-6.35,5.43-8.47,11.75-4.77,19.28,5.57,11.31,9.56,22.88,9.92,35.62.12,4.12,1.29,8.2,2,12.3.13,1.83.25,3.67.37,5.5-.66,3.24-1.33,6.47-2.14,10.45,3,0,4.82.05,6.67,0q22.66-.63,45.31-1.31l9.8.07c13.73,3.5,25.85-2.11,38.15-6.74,1.41-.35,3-.42,4.2-1.13,2.4-1.39,3.24-.46,3.57,1.83.87,5.5,5,7,9.65,8.26,11.87,3.18,23.89,6,35.44,10.09,7.29,2.6,14.09,1.37,21.2.83a52.08,52.08,0,0,1,10.21.41c3.1.38,6.11,1.71,9.2,1.94,20.9,1.55,36.45,10.39,43.35,31.26,2.37,7.19,4,14.49,2.81,22.31a51.48,51.48,0,0,1-6.89-12.8c-5.21-15.41-14.86-26.31-31.34-28.64-11.16-1.59-22.82-2.56-33.85-1-7.41,1.06-12.63-.81-18.41-3.85a24.81,24.81,0,0,0-5.69-2.31c-12.22-2.92-24.4-6.07-36.73-8.39-6.16-1.16-12.62-.72-19-1l-2-.22c-1.26-.54-2.53-1.57-3.78-1.56-6.29.08-12.58.57-18.87.65-11.83.16-23.66-.09-35.47.31-4.95.16-9.86,1.54-14.78,2.37l-2.42.05-7.09.55-3.64.51-.73.24c-4.46,1.84-9.06,3.4-13.33,5.59-7.29,3.73-14.33,8-21.58,11.76-1.95,1-4.31,1.27-6.47,1.87,4.53-4.89,9.47-8.85,14.22-13,5.91-5.19,12-10.23,17.3-16,2.12-2.33,3.24-6.58,3-9.82-.68-8.93-5.41-16.42-10.3-23.69-5.36-8-10.76-15.91-16.38-24.22,8.7-5.15,11.06,3.15,16.19,6.56-3.91-10.86-5.5-21.1-1.16-31.47l.42-1,.6-1.66c2.26-2.48,1.06-4.24-1.5-4.88-4.24-1.07-8.62-2.34-12.92-2.29-11.9.15-22.61,4.3-33.24,9.68-15.18,7.69-25.95,19.18-33.68,33.93-1,1.87-1.26,4.1-1.87,6.16l-8.47,9.11-.75.65-.23.12-2.41,1.29-9.91,10.11-.46.87-.71.82-1.12,1.26-.71.71-.87.68-3.8,4.05-.81.87c-.2.21-.4.41-.6.63-4.93,4-5.48,5.74-2.69,8.5,8.42,8.3,26.82,11.66,37.06,5.77,13.28-7.63,26.05-16.13,39-24.25l1.72,0,1.09-.28,2.56.06c-.54,1-.84,2.27-1.65,2.91-3.94,3.07-8,6-12.06,8.92l-.59.65A2.9,2.9,0,0,0,451.57,406.41ZM343.19,388.77l-1,1.76c-3.43,5.74-6.54,11.72-10.37,17.18-5.76,8.19-12,16.09-18.15,24-1,1.31-3,1.84-4.59,2.72l-.93-1.2c2.22-3.76,4.56-7.45,6.63-11.29,5.12-9.44,10.11-18.95,15.16-28.43l2.12-5c-1.19,0-1.61-.13-1.78,0-10,8.61-20,17.14-29.77,26-2.25,2-3.63,5-5.41,7.57L288.5,438.8c-3,7.74-4.67,15.83-1.88,23.76,3.68,10.46,20.76,20.91,32.26,20.66l.66.25,6.64,1.95,25.37,2.87c-6.28,5.49-14.13,5-21.56,6l-6.79.17-11.31-.36-1.75-.12-1.07-.06-2-.24-4.63-.71c-6.51-1.61-13-3.54-19.56-4.63-2.07-.34-4.52,1.61-6.8,2.52l-4.71,6.72a45.33,45.33,0,0,0-5.92,31.74c3.42,20.35,10.7,37.72,31.89,46.13,16.88,6.7,32.5,6.22,46.44-5.9,6.49-5.65,13-5.28,20.18-3.16,9.82,2.88,19.59,6,29.5,8.47,11.29,2.86,22.54,3,33.07-3a9.69,9.69,0,0,0,3.76-4.18c2.57-5.71,4.43-11.76,7.28-17.3,2.46-4.81,6.28-8.93,8.73-13.75,1-1.89.81-5.88-.52-7.14-4.62-4.38-9.54-8.8-15.13-11.7-11.68-6.07-23.89-5.17-36.28-1.2-20.12,6.45-40.84,11.35-59,22.79-10,6.3-20.26,10.64-32.36,8.32l-1.62-.5-1.1-.33a56.89,56.89,0,0,1-18.73-13.21l5.61-17a77.29,77.29,0,0,1,3.7,6.8c4.28,10,12.76,15.55,23.15,13.93a32.7,32.7,0,0,0,12.43-5.26c11.37-7.5,23-14.11,36.76-16.2,3.18-.48,6.21-2,9.31-3.05l7.77-1.71,7.33-2c-3.31-1.43-5.18-2.19-7-3a66.11,66.11,0,0,1-26.48-22.06c-5.83-8.12-11.15-16.47-9.91-26.71.87-7.18,3.77-14.11,5.76-21.16l5.4-8.66c1.88-1.17,4.36-1.93,5.52-3.6,3.46-5,6.39-10.31,9.53-15.51,8.58-7.61,16.7-15.84,25.87-22.66,10.79-8,17.38-18,19.26-31.2,2.54-5.79,2.3-7-3.72-6.91-8.08.12-16.48.45-24.11,2.76-8,2.43-15.66,6.66-22.66,11.33C360.34,365,357,370.23,353,374.57l-9.68,14.13ZM599.83,768.88c.27-.7.89-1.49.74-2.08-1.48-5.85-3.37-11.61-4.59-17.51-1.49-7.19-3.82-14.58-3.34-21.71,1-14.34,3.1-28.65,9.25-42,.7-1.52-.39-3.86-.65-5.83-2.31-.3-4.65-1-6.91-.82-5.1.46-10.15,1.87-15.24,2-3.87.06-5.41,1.58-6,5q-2.54,14.83-5.11,29.67c-.69,4-1.43,8.06-2.26,12.69l-5.43-3.34c12.45,36,24.63,71.18,36.87,106.58-4,2.47-7.88,2-10.66-2.55a66.64,66.64,0,0,1-5.7-11.93c-4.68-12.9-8.91-26-13.64-38.83-5.58-15.22-10.91-30.61-21-43.68a64,64,0,0,0-5.83-5.81c-2,3.78-3.38,6.51-4.8,9.23a2.36,2.36,0,0,0-.46,0,2.26,2.26,0,0,0-.42.19l3.91,3.47-.13-.14v2.32c-.16,1.4-.88,3-.39,4.16,2.57,5.72,5.72,11.19,8.16,17q8.63,20.35,16.75,40.94c2.51,6.38,4.42,13,6.66,19.5,1.57,4.59,3.06,9.23,4.9,13.71,2.11,5.13,4.14,6,9.65,4.92,9.21-1.78,18.43-3.47,27.63-5.32a72.6,72.6,0,0,0,12.27-3.13c2.07-.82,3.92-3,5-5,.42-.76-1.54-2.82-2.42-4.3l-1-1.25,0,.07-1.27-1.7c-.38-3.2,0-6.71-1.27-9.55-3.7-8.61-7.93-17-12.15-25.37-.56-1.12-2.28-1.65-3.47-2.46Q603.72,777.36,599.83,768.88ZM357.29,590.82,354.5,589c-2.95-3.68-6.42-5.88-11.38-4.23-15.68,5.2-31.47,5-47.36,1-1-.25-2.2.29-3.3.46a12.15,12.15,0,0,0,.83,3.37,4.48,4.48,0,0,0,2.25,1.64c8.84,3.59,17.65,7.23,26.56,10.6a63.37,63.37,0,0,0,12.64,3.66c11.63,1.77,23.31,3.3,35,4.49,5.68.58,11.72,1.7,17.43-3.54C378.78,598,367,596.31,357.29,590.82ZM622,359.39l15.28-4.84,3.07-1.07c5.11-1.8,5.87-3.82,2.05-7.67-7.79-7.85-14.13-10.54-22.48-5.87l-1.66-.66c-7.43-8.44-14.46-8.51-21.71,0a5.59,5.59,0,0,0-1.06,4.6,91,91,0,0,0,6,13.67c1.1,1.95,3.67,4.44,5.47,4.37C612,361.75,617,360.33,622,359.39ZM365.67,583.28c1,1.62,1.67,3.71,3.1,4.74,2,1.45,4.51,2.22,6.87,3.09,16.82,6.15,33.95,10.66,52.1,9.56,3.55-.22,6.57.39,9.5,3.05,8.53,7.79,18.88,12.34,29.94,15.37,10.18,2.8,20.49,2.94,30.9,1.67,2.76-.34,5.62-.1,6-3.83s-1.68-5.63-5.15-6c-5.77-.67-11.59-1-17.34-1.8-16.61-2.37-30.25-10.25-41-23.05-3.05-3.63-6.41-4.07-10.54-2.74-2.39.77-4.81,1.87-7.26,2-15.23.61-30.45,1.55-45.22-4.1-3.55-1.36-8-.43-12-.48,0,0-.08.85-.12,1.3Zm64.84,57.31c-1.26,1.47-3.05,2.74-3.71,4.45-5.24,13.56-7.38,27.58-4.65,42,3.89,20.54,14.38,36.49,34.22,44.63a87,87,0,0,0,24.81,6.52c9.12.8,18.15-1.51,27.05-4.82,15.32-5.69,21.09-17.66,24.17-32.09l.09-1.32c.56-.19,1.31-.21,1.65-.59,7-8.1,13.91-16.26,20.89-24.38,2-2.31,1.89-4-.91-5.67-13.24-7.93-25.08-17.54-33.66-30.52-4.25-6.42-9.62-8.5-17.11-8.2a148.25,148.25,0,0,1-27.32-1c-9.73-1.45-19.17-4.79-28.82-6.88-2-.44-5.53.27-6.52,1.7-3.28,4.75-5.72,10.08-8.48,15.18Z" transform="translate(-1.03 -1.09)"/><path class="cls-3" d="M150.87,868c7.17-14,17.69-25.8,28.52-38.37-6.95-2.33-11.69.95-16.71,1.86-1.36.25-2.68,1.3-4,1.24a8.7,8.7,0,0,1-4.85-1.57c-.55-.43-.12-2.92.6-4,6.55-9.38,13-18.81,20-27.9,10.39-13.63,21.18-26.95,31.63-40.54,1.24-1.6,1.38-4,2.17-6.49-2.24-.76-3.94-1.73-5.72-1.88-12.54-1.07-25.1-2-37.66-2.91-8.64-.66-17.28-1.27-25.91-2-4.41-.38-5.64-2.68-3.08-6.24,4.11-5.74,8.68-11.15,12.81-16.88,5.85-8.12,11.25-16.58,17.27-24.58,6.8-9,14.26-17.57,21.09-26.59,9.47-12.51,18.59-25.29,28-37.87.87-1.15,2.64-1.63,4-2.43.44,1.42,1.28,2.83,1.26,4.25-.13,16-2.73,31.28-12.2,44.83-2.86,4.08-4.71,8.89-6.88,13.43-2.7,5.62-1,9.75,5.15,10.92,8.48,1.61,17.07,2.76,25.67,3.64,17.06,1.76,34.16,3.22,51.24,4.75,2.2.19,4.47-.14,6.62.24a5.75,5.75,0,0,1,3.71,2.17c.41.71-.55,2.66-1.41,3.57-3.47,3.67-7.21,7.08-10.72,10.72-7.67,8-16.6,15.09-22.56,24.17-8.79,13.41-20.69,23.67-31.14,35.37-11.73,13.13-23.44,26.28-35.31,39.29-7.2,7.9-14.67,15.56-22,23.31-4.57,4.81-9.14,9.61-13.77,14.35-1.25,1.27-2.72,2.32-4.09,3.47Z" transform="translate(-1.03 -1.09)"/><path class="cls-3" d="M571.26,291.91a21.1,21.1,0,0,1-4.56.88c-7.41-.18-14.81-.7-22.22-.77-16-.14-31.92,0-47.87-.12-14.53-.08-28.25,3.65-42.13,7.55-21.51,6-43.34,10.94-65.13,15.88-22.64,5.13-43.72,13.73-61.14,29.18A226.83,226.83,0,0,0,299,375.8c-13,16.93-24.78,34.85-36.79,52.55a41.58,41.58,0,0,0-5.78,12.89c-4.82,19.09-10.42,38.1-13.42,57.49-3.51,22.75-3.31,45.69,7.2,67.27,3.68,7.56,5.79,16.15,10.61,22.83,9.49,13.15,19.92,26.06,35.17,32.95,18.47,8.35,37,17,58,17.25,4.86.05,9.72-.06,14.58,0,6.84.11,9.92,3.64,8.5,10.41-2.08,9.95-4.88,19.75-6.83,29.72-2.48,12.64-4.39,25.39-6.59,38.08-1.21,7-2.45,13.94-3.85,20.87-.2,1-1.36,1.74-2.08,2.6-.8-1-2.29-2-2.29-3.06,0-15.44-.24-30.9.42-46.32.42-9.72,2.16-19.39,3.4-29.08.47-3.71-1.1-4.55-4.67-5.14-13.81-2.27-28-3.71-41.16-8.08-18.9-6.26-36.54-16-50.15-30.89-7.88-8.62-14-19-20.22-28.95-4.65-7.47-9.07-15.31-12-23.55-2.57-7.31-3.59-15.35-4.11-23.14-1.17-17.83.81-35.42,4.06-53,2.52-13.64,6.59-26.68,10.51-39.89,5.45-18.4,12.79-35.82,23.3-51.88,3.42-5.24,3.05-7.7-2.06-11.47-9.23-6.82-18.57-13.49-27.89-20.19-5.48-3.93-6.8-6.5-4.82-9.63,2.3-3.64,8.4-4.22,13.07-1.17,6.56,4.3,13,8.86,19.69,12.86A53.87,53.87,0,0,0,274.56,373c1.17.35,3.4-.83,4.35-2,6.24-7.45,14.16-13.56,17.94-23,.6-1.49,3.78-3.36,5-2.94,4.07,1.39,6.18-1,8.71-3.1,6.59-5.37,12.85-11.27,19.94-15.89,6.37-4.14,13.54-7.19,20.61-10.09,9.92-4.08,20-7.91,30.16-11.23,7.87-2.56,16.34-3.4,24-6.36,17.56-6.8,35.9-9,54.37-10,22.82-1.21,45.7-1.75,68.56-1.74,13,0,26.07,1.65,39.1,2.61a27.83,27.83,0,0,1,3.89.84C571.26,290.73,571.26,291.32,571.26,291.91Z" transform="translate(-1.03 -1.09)"/><path class="cls-3" d="M645.62,702c6.11,0,12.23-.26,18.32.06a93.9,93.9,0,0,0,43.74-8.36c15.8-7.1,31.37-14.72,46.79-22.61a71.34,71.34,0,0,0,15.39-10.88c3-2.74,5-6.81,6.84-10.58,7.2-14.89,14.16-29.89,21.19-44.85.41-.85.75-1.73,1.09-2.61,3-7.9,10-10.29,16.94-5.15,7.71,5.7,15.06,11.91,22.33,18.18A122.21,122.21,0,0,1,850,626.94c1.1,1.24,1,3.54,1.45,5.35-1.73-.13-3.82.31-5.16-.49-8.76-5.25-17.38-10.75-26-16.23-4.23-2.69-6.73-2.56-9.47,1.72-5.33,8.35-10.08,17.09-15.45,25.42-9,13.94-18.78,27.15-32.94,36.54-7.3,4.84-8.24,9.57-4.58,17.51,2.56,5.56,5.19,11.09,7.66,16.7a5.44,5.44,0,0,1,.48,3.67c-1.05,2.72-1.91,6.63-4,7.6-3.77,1.74-6.33-1.84-8-4.89-3.23-5.81-6.17-11.79-9.18-17.73-1.77-3.51-4.18-4.15-7.77-2.49-8.45,3.9-16.78,8.24-25.58,11.13-20.61,6.77-41.7,10-63.36,5.49a28,28,0,0,1-5.29-2c-3.66-1.57-7.09-3.65-6-8.31C637.8,701.48,641.3,700.23,645.62,702Z" transform="translate(-1.03 -1.09)"/><path class="cls-4" d="M257.78,574c5.47,6.17,10.26,13.2,16.59,18.3,9.5,7.65,20,14,30.25,20.76,3.27,2.16,6.76,4.41,10.48,5.37,11,2.88,22.13,6,33.41,7.42,18.37,2.26,36.37-1.87,54.28-5.52,2.15-.44,4.16-1.54,6.31-1.9,1.89-.31,5.07-.7,5.57.16.92,1.6.82,4.24.24,6.19-2,6.76-4.88,13.29-6.54,20.12-4.9,20.24-5.46,40.45,1.84,60.39,6.15,16.8,17.56,29.26,32,39.26C459.83,756.73,479.42,760,500.28,757c4.34-.63,8.55-2.09,12.8-3.25,5.44-1.49,8.51,0,10.45,5.1q11.09,28.89,22.29,57.73,7.5,19.28,15.24,38.45c3.54,8.83,11.55,12.57,20.56,10.13,17.76-4.83,35.61-9.38,53.35-14.3a44.18,44.18,0,0,0,11.12-5c5-3.07,6.68-8.09,4.49-13.53-4.65-11.52-9.37-23-14.63-34.29a343.22,343.22,0,0,1-22.48-62.91c-2.73-11-.79-22.18,2.72-32.89,2.29-7,5.15-13.78,7.79-20.65,1.37-3.59,3.6-5.06,7.07-2.44,13.12,9.89,28.45,10.16,43.74,9.53,17.05-.71,32.6-6.83,46.82-16,2.85-1.83,4-6.21,6.23-9.17,1.33-1.72,3.22-4.08,5-4.21,7.48-.54,12.41-5.26,17.1-10,8.32-8.39,16.16-17.24,24.14-26,3.29-3.6,4.3-8,3.75-12.77s1-8.48,4.68-11.67c12.17-10.49,16.57-24.48,17.18-39.93.45-11.31,1.36-22.91-3.1-33.56-2.72-6.5-7.3-12.3-11.53-18.06-2.7-3.68-3.56-8.61-.94-11.93-1,6.6,2.53,10.81,6.89,15.28a36.43,36.43,0,0,1,10.09,22.53c1,11.87,2,24.05.39,35.74-1.66,12-6.55,23.58-16.86,31.59-3.71,2.89-4.59,6.32-4.12,11.13a18,18,0,0,1-3,11c-9.11,13.4-20.74,24.57-33.15,34.89a16.11,16.11,0,0,1-8.12,3.47c-3.81.4-5.57,2.24-6.66,5.51a17.5,17.5,0,0,1-10,10.73c-8.36,3.7-16.42,8.56-25.15,10.8-18.24,4.69-36.81,6.13-54.84-1.54-4-1.72-7.75-4.17-12.49-6.76-2.93,7.76-6.15,15.63-8.87,23.68-5.63,16.63-3.66,32.86,2.89,48.88,5.19,12.7,9.82,25.62,15,38.33C641,802.9,646.44,814.84,651.41,827c5.37,13.07,2.06,20.95-11.6,25-19.49,5.79-39.21,10.87-58.95,15.81-10.31,2.59-17.12-1.13-21.19-11-8.78-21.3-17.33-42.69-25.94-64.06-4.53-11.27-9.07-22.54-13.41-33.88-1.29-3.39-3.38-3-6-2.25-11.93,3.32-24,5.35-36.46,3.89a82.68,82.68,0,0,1-46.07-20.15c-25.84-22.5-33.24-51.24-28.38-83.84,1.59-10.66,5.47-21,8.33-31.45.4-1.47.91-2.91,1.35-4.3-10,2-19.79,4.07-29.62,6-18.92,3.72-37.61,1.78-56.42-1.49-15.18-2.64-26.78-11.84-39.45-19.19-12.1-7-21.06-17.24-28.85-28.61C258.11,576.51,258.09,575.14,257.78,574Z" transform="translate(-1.03 -1.09)"/><path class="cls-3" d="M789.65,460.33l-5-15.19c3.09-2,2.28-4.67,1.69-7.56a40.29,40.29,0,0,1-1.1-10.21c.11-1.84,2-3.58,3.06-5.36,1.5,1.13,3.48,2,4.41,3.47a40.93,40.93,0,0,1,3.29,7.78c2.77,7.66,5.24,15.43,8.24,23,2.12,5.35,5.57,6.85,10,5,13.41-5.66,26.81-11.33,40.11-17.23,1.52-.67,2.36-2.85,3.51-4.33l0,.13c4.21-.29,8.44-.93,12.62-.7,2,.11,4,1.85,6,2.86a30.4,30.4,0,0,1-3.44,4.31,14.42,14.42,0,0,1-4.12,2.2c-4.77,2-9.57,3.92-14.38,5.83-10.35,4.1-20.79,8-31,12.33-4.39,1.84-10.12,1.53-12.5,7l-.09-.25h.26c-.82,1.58-2.46,3.25-2.3,4.73,1.13,10.54,2.28,21.09,4.16,31.51.84,4.65.16,7.29-4.56,8.35l.07.06c-.13-.75,0-1.72-.43-2.22-4.51-5.28-6.63-11.62-8.1-18.24-1.88-8.39-3.45-16.86-5.6-25.19C793.33,468.25,791.26,464.35,789.65,460.33Z" transform="translate(-1.03 -1.09)"/><path class="cls-3" d="M495.59,156.38q.78,50.13,1.54,100.28a62.59,62.59,0,0,1-.59,11.3c-.28,1.61-2.22,2.93-3.4,4.37-1.1-1.48-2.91-2.84-3.17-4.46-1.16-7.14-2.21-14.33-2.65-21.53-.95-15.42-1.58-30.85-2.18-46.28q-1.14-28.81-2-57.65c-.21-7.12,1.55-9.8,5.88-9.94s6,2.43,6.13,9.71c.08,4.73,0,9.47,0,14.2Z" transform="translate(-1.03 -1.09)"/><path class="cls-4" d="M674,333.06c-1.63-.26-3.48-.11-4.85-.84-21.13-11.34-43.62-16.87-67.61-15.86a56.21,56.21,0,0,0-13,2.18c-3.83,1.09-7.4,1-10.29-1.46-9-7.73-20.15-9.11-31.11-11.2-9-1.72-17.3.62-25.79,3.53-4,1.37-9,.92-13.29-.1-13.48-3.24-26.8-2.39-40.3-.35-9.66,1.47-18.73,4.31-26.86,9.61a49.41,49.41,0,0,0-10.43,9.31c-2.77,3.26-6,4-9.46,2.89-11.09-3.52-22.3-2.5-33,.39-8.48,2.29-16.66,6.46-24.25,11-8.68,5.18-16.18,12.33-24.9,17.41-6.75,3.92-14.6,6-21.95,8.84,2.25-1.33,4.36-3.1,6.78-3.92,7.31-2.46,13.4-6.65,19.44-11.39,13.93-10.91,29-20,46.37-24.48,10.58-2.75,21.29-4,32.06-.2a6.28,6.28,0,0,0,5.49-1.31c10.17-11.11,22.62-17.52,37.47-20,16.95-2.78,33.73-3.86,50.43,1.36a5.88,5.88,0,0,0,4-.61c11.9-6.26,24.29-5.78,36.91-3,8.84,2,17.4,4.41,24.48,10.56a6.83,6.83,0,0,0,5.53,1.07c14.81-4.54,29.67-3.3,44.51-.64a83.89,83.89,0,0,1,17.33,4.62C656.73,324.22,665.31,328.83,674,333.06Z" transform="translate(-1.03 -1.09)"/><path class="cls-3" d="M397,282.89l-3.24,4.29c-1.49-1.35-3.64-2.41-4.38-4.09-2.53-5.75-4.41-11.79-6.83-17.59q-11.29-27-22.84-53.94c-3.91-9.14-8.06-18.16-12-27.28a27.45,27.45,0,0,1-1.7-5.85,2.6,2.6,0,0,1,.88-2.3,2.55,2.55,0,0,1,2.35.77,48.08,48.08,0,0,1,4.37,7.28q15.72,34.66,31.29,69.39c3.46,7.71,7,15.41,10.34,23.16A53.27,53.27,0,0,1,397,282.89Z" transform="translate(-1.03 -1.09)"/><path class="cls-5" d="M857.89,439.66c-1.15,1.48-2,3.66-3.51,4.33-13.3,5.9-26.7,11.57-40.11,17.23-4.47,1.89-7.92.39-10-5-3-7.57-5.47-15.34-8.24-23a40.93,40.93,0,0,0-3.29-7.78c-.93-1.49-2.91-2.34-4.41-3.47-1.08,1.78-2.95,3.52-3.06,5.36a40.29,40.29,0,0,0,1.1,10.21c.59,2.89,1.4,5.59-1.69,7.56-.3-.06-.86-.08-.89-.2-1.44-7.83-3.28-15.74,0-23.5,1.6-3.8,5.81-4.61,8.39-1.36a47.53,47.53,0,0,1,6.7,11.76c3,7.37,5.4,15,7.92,22.53,1.24,3.71,3.49,4.92,7.07,3.4,10.71-4.55,21.37-9.19,32.1-13.69C849.82,442.44,853.89,441.12,857.89,439.66Z" transform="translate(-1.03 -1.09)"/><path class="cls-3" d="M706.31,847.36c-4.37-.05-7.17-3.41-7.21-8.69,0-4.64,4.28-8.73,9.25-8.76a7.23,7.23,0,0,1,7.61,7.75C715.87,842.76,711.25,847.41,706.31,847.36Z" transform="translate(-1.03 -1.09)"/><path class="cls-5" d="M811,473.64c2.38-5.49,8.11-5.18,12.5-7,10.26-4.31,20.7-8.23,31-12.33,4.81-1.91,9.61-3.84,14.38-5.83a14.42,14.42,0,0,0,4.12-2.2,30.4,30.4,0,0,0,3.44-4.31c-2-1-3.92-2.75-6-2.86-4.18-.23-8.41.41-12.62.7-.06-.15-.2-.37-.15-.44,4-5.47,17.47-5.52,20.93-.1,1.94,3.05.56,7.06-3.82,9.33-4,2.1-8.36,3.64-12.6,5.34q-25,10-50,19.95C811.94,474,811.43,473.73,811,473.64Z" transform="translate(-1.03 -1.09)"/><path class="cls-3" d="M644.71,228.18c-.05-4.88,4-9.88,8.13-9.91,4.54,0,8,3.69,8,8.6,0,5.14-4.29,10-8.73,10C647.94,236.76,644.76,233.06,644.71,228.18Z" transform="translate(-1.03 -1.09)"/><path class="cls-3" d="M186.6,244.55a9.23,9.23,0,0,1,9.24-9.26c3.55-.07,7,3.53,7,7.42.09,4.95-3.88,9.48-8.44,9.62C189.37,252.48,186.66,249.8,186.6,244.55Z" transform="translate(-1.03 -1.09)"/><path class="cls-4" d="M259.44,454.54a34.47,34.47,0,0,1,1.85,4.53c1.18,4.69,2.66,9.38,3.09,14.16a18.14,18.14,0,0,1-1.92,9.16c-3.91,7.93-8.28,15.64-12.6,23.36-.8,1.45-2.22,2.55-3.35,3.81,1.34-10.9,7.22-19.65,13.63-28,2.19-2.87,2.4-5.23,1.7-8.62C260.6,466.89,260.19,460.68,259.44,454.54Z" transform="translate(-1.03 -1.09)"/><path class="cls-5" d="M789.65,460.33c1.61,4,3.68,7.92,4.75,12.07,2.15,8.33,3.72,16.8,5.6,25.19,1.47,6.62,3.59,13,8.1,18.24.43.5.3,1.47.43,2.22-2.22-1.75-5.45-3-6.47-5.34a116.24,116.24,0,0,1-6.55-19.06c-2.38-9.58-4.1-19.31-6-29A19,19,0,0,1,789.65,460.33Z" transform="translate(-1.03 -1.09)"/><path class="cls-5" d="M808.46,518c4.72-1.06,5.4-3.7,4.56-8.35-1.88-10.42-3-21-4.16-31.51-.16-1.48,1.48-3.15,2.3-4.73,1.43,11.45,3,22.89,4.19,34.37a23.39,23.39,0,0,1-.79,9.58C813.43,520.71,810.31,520.78,808.46,518Z" transform="translate(-1.03 -1.09)"/><path class="cls-4" d="M784.77,492.71c-.42-.71-1.17-1.4-1.21-2.12-.39-8.72-.74-17.44-.9-26.16,0-1.35,1-2.73,1.46-4.09Q784.45,476.54,784.77,492.71Z" transform="translate(-1.03 -1.09)"/><path class="cls-3" d="M791.64,371.3c1.38,1.85,4,3.83,3.8,5.52s-3.13,4.31-4.85,4.3c-1.56,0-4-2.82-4.38-4.74-.3-1.34,2.11-3.28,3.31-4.95Z" transform="translate(-1.03 -1.09)"/><path class="cls-3" d="M571.76,266.51c2.73-2.16,4.76-4.71,5.76-4.35,1.74.61,4,3.09,3.91,4.66s-2.64,3.28-4.11,4.91Z" transform="translate(-1.03 -1.09)"/><path class="cls-3" d="M483.62,791.24c-2.9,2-4.51,4.06-6,4s-3.94-2.57-3.76-3.64a6.24,6.24,0,0,1,3.84-4.24C478.93,787,480.74,789.21,483.62,791.24Z" transform="translate(-1.03 -1.09)"/><path class="cls-3" d="M666.72,739.4c-2,1.65-3.44,3.48-4.16,3.24-1.25-.42-2.83-2.1-2.86-3.29s1.58-2.55,2.48-3.83Z" transform="translate(-1.03 -1.09)"/><path class="cls-4" d="M679.45,334.72l-2.1-.72Z" transform="translate(-1.03 -1.09)"/><path class="cls-6" d="M449.7,408.18l1.24-1.11.63-.66a2.9,2.9,0,0,1,.34-.36l.59-.65c4-3,8.12-5.85,12.06-8.92.81-.64,1.11-1.92,1.65-2.91l-2.56-.06-1.09.28-1.72,0c-1-3.31-3.6-2.33-5.4-1.49-8.38,3.9-17.05,7.4-24.84,12.29-12.69,8-25.5,9.13-39,3.23-1.65-.72-2.76-2.67-4.12-4.05.2-.22.4-.42.6-.63l.81-.87,3.8-4.05.87-.68.71-.71,1.12-1.26.71-.82,3.08-2.28-.06.05,1.92-1.95,0,0,1-1,0,0,1.95-1.9,0,0,1.92-1.94,0,.06,1-1-.08.07,2.17-2.49.23-.12.75-.65,8.47-9.1a18.33,18.33,0,0,0,3.1-2.68c3.46-4.69,7-9.35,10.11-14.26,9.27-14.57,22.94-23.56,38.95-28,10-2.8,21-2.63,31.05,2.37l-.6,1.66-.42,1c-4.34,10.37-2.75,20.61,1.16,31.47-5.13-3.41-7.49-11.71-16.19-6.56,5.62,8.31,11,16.25,16.38,24.22,4.89,7.27,9.62,14.76,10.3,23.69.24,3.24-.88,7.49-3,9.82-5.27,5.8-11.39,10.84-17.3,16-4.75,4.17-9.69,8.13-14.22,13,2.16-.6,4.52-.85,6.47-1.87,7.25-3.8,14.29-8,21.58-11.76,4.27-2.19,8.87-3.75,13.33-5.6l.4,0,.33-.25,3.64-.51,7.09-.55,2.42-.05c1.9.44,3.81,1.24,5.71,1.25,22.45.16,44.93.94,67.19-3l2,.22c.76.59,1.45,1.54,2.28,1.69,8.89,1.62,17.76,3.43,26.71,4.57,14.72,1.87,26.2,10,37.36,18.72,3.11,2.42,4.44,2.08,6.74-.84,1.57-2,4.39-4.21,6.66-4.21,7.35,0,14.7,1,22.06,1.57,14,1.16,25.19,6.6,31.25,20.12a55.87,55.87,0,0,0,3.36,5.64c-.13.86-.26,1.72-.38,2.58l-.33,1.26-2.37,10.05c-1.69,2.57-3.76,5-5,7.74-4.26,9.73-10.89,16.95-21.62,18.54-6.8,1-13.88.19-20.83.19a43.19,43.19,0,0,0,9.24,5.05c1.1.49,2.14,1.14,3.2,1.71l-6.29.14-1.21,0-14.13,1c17.89,10.64,35.29,9.58,53,2.84,4.51-.31,6.72,2.8,8.78,6,6.92,10.77,7.27,22.15,3.18,34-1,2.74-2.48,4-5.31,3.06-4.32-1.41-8.93-2.35-12.87-4.48-14.22-7.71-28.7-10.86-44.49-5.11-3.25,1.19-7.13,1.16-10.69,1-10.77-.62-19.19-6.38-26.92-13.28-9.44-8.44-15.58-18.21-12-31.65a9.75,9.75,0,0,0-.08-2.79C651.06,490,669,479,690.39,473.83c5.64-1.36,11.88-.35,17.85-.27,2.3,0,4.59.47,6.89.72l.57-1.43L705.58,468l-2.75-.73-3-.54-7.71-.17-4.47.14c-5.76-.09-11.56-.7-17.25-.12-5,.52-9.85,2.38-14.77,3.65-.86-5.55-1.63-11.14-7.92-14.25,4,4.72,2.29,8.75-.73,12.65-1.47.83-2.92,1.68-4.4,2.48-5.45,3-10.68,7.72-16.43,8.49a108,108,0,0,1-29-.44c-11.92-1.67-23.56-5.2-35.42-7.42a11.42,11.42,0,0,0-8,2.2c-1.15.87-.39,4.26-.51,6.66l-4.2.95-1.7-.33-4.06-.38-22.69.59c-4.38.14-8.77.12-13.14.44-12.69.93-24.39,4.44-34.08,13.24-4.2,3.81-8.55,7.46-13.06,10.88-3.05,2.32-5,1.35-5.41-2.41-.2-1.71,0-3.46-.11-5.2-.54-9.77-1.11-19.54-1.72-30.12l-3.63,4.9c-1.07-10.89-3.06-21.53-8.41-31.27l-1.89-4c2.32,21.72-5.38,41.08-11.06,60.35-10.84-2.23-21-5.07-31.32-6.27-13.93-1.62-26.45-5.24-35.24-17.06-1.37-4.12-2.75-8.23-4.08-12.36a6,6,0,0,1-.38-2.32c.86-9.08,3.19-17.59,9.74-24.41,11.62-3.87,23.23-2.44,34.82.13,9,2,17.48,1.1,25.45-3.71,9.27-5.59,15.58-14,21.43-22.76.14-.18.29-.34.45-.51Z" transform="translate(-1.03 -1.09)"/><path class="cls-6" d="M302.44,493l4.63.71,2,.24,1.07.06,1.75.12,11.31.36,6.79-.17c7.43-.94,15.28-.5,21.56-6l-25.37-2.87-6.64-1.95-.66-.25a12.15,12.15,0,0,0-2.31-1.47c-9.47-3.35-16.29-10.13-22.54-17.55-1.46-1.73-3-4.16-3-6.23.18-7.36.38-14.84,1.8-22,2.84-14.45,12.81-24.14,23.74-33,4.5-3.63,8.9-7.38,13.18-11l.2,1.44c-5.05,9.48-10,19-15.16,28.43-2.07,3.84-4.41,7.53-6.63,11.29l.93,1.2c1.55-.88,3.56-1.41,4.59-2.72,6.2-7.86,12.39-15.76,18.15-24,3.83-5.46,6.94-11.44,10.36-17.18.33-.59.66-1.17,1-1.76l.08-.07,4.15-3.77,1.49-1-.19.08c1-1.14,2.13-2.23,3.1-3.42,6.85-8.38,12.52-17.46,24.12-21.18,13.11-4.2,25.92-7.48,39.67-4.78-1.88,13.2-8.47,23.18-19.26,31.2-9.17,6.82-17.29,15.05-25.87,22.66l-3-2.73c-2.54,3.24-5.73,6.51-7.9,10.35-2,3.5-2.84,7.64-4.2,11.49l-5.4,8.66-1.14-2.53c-7.34,8.31-11,17.52-8.28,27.93,1.53,5.91,4.81,11.52,8,16.82,5.84,9.63,12,19.16,21.05,26.17,3.28,2.53,7.08,4.39,10.64,6.56l-7.77,1.71c-3-.16-6-.78-8.87-.42-13.2,1.66-25.18,6.68-36.57,13.44-15,8.89-26.79,5.54-35.15-9.64-.88-1.6-1.74-3.21-2.93-5.42-.74,2.36-1.29,4.09-1.83,5.82l-5.61,17a56.89,56.89,0,0,0,18.73,13.21l1.1.33,1.62.49c6.53,4.49,13.48,5.83,20.76,2.13,7-3.54,13.79-7.45,20.72-11.11,16.57-8.76,34.72-13.08,52.6-17.86a57.73,57.73,0,0,1,21.46-1.07c14.54,1.78,21.76,17.05,13.27,27.56-6.72,8.33-15.85,13.42-26.73,12.86a169.4,169.4,0,0,1-27.95-4.07c-12.18-2.7-23.83-3.21-35.56,2.1A58.37,58.37,0,0,1,313,563.14c-15.85-1.2-28.94-7.94-35.49-22.84a71.88,71.88,0,0,1-6.27-35.36c.21-2.44.11-4.91.15-7.37l4.71-6.72c5.5.26,11,.41,16.51.81C295.88,491.9,299.15,492.52,302.44,493Z" transform="translate(-1.03 -1.09)"/><path class="cls-6" d="M523.43,567.85l-4.36,6.78c6.47,1.07,11-1.84,15.61-4.49,3.68-1.35,8-1.91,10.92-4.23A233.61,233.61,0,0,0,565,548.1c6.19-6.19,13.8-8.6,22.08-8.77a59,59,0,0,1,33.76,9.17,19.82,19.82,0,0,0,3.9,1.5,25.7,25.7,0,0,0,2.33,2.74q9.17,8.22,18.39,16.34c3.07,2.71,4.07,5.89,2.35,9.76s-5.16,2.84-7.83,2.29a132.6,132.6,0,0,1-17.21-4.69c-8.78-3.07-17.34-6.79-26.11-9.89-5.87-2.08-11-1.75-16.61,2.71a64.25,64.25,0,0,1-34.15,14.07c-14.6,1.33-29.27,1.88-43.92,2.57-11.19.53-22-1.08-32.05-6.48-.68-.37-1-1.46-1.47-2.21,8.18.14,16.5,1.94,25.29-2.19-2.26-.54-3.68-1.25-5-1.16-12.07.81-23.38-.71-32.47-9.76-2.29-6.38-1.23-12.64,1.9-18.25,4.79-8.6,9.87-17.16,18.92-22.22,11.38-6.36,22.57-13.07,34.21-18.93,6.67-3.35,14.22-4.89,21.06-8,8.87-4,16.94-2.59,25.51,1.08,3.74,1.61,8.55.71,12.87.94l50.91,9.07c-1.49,5.72-3.2,12.31-4.82,18.6l-17-2.08c-19-2.36-34.57,4.93-48.13,17.42-5.3,4.89-10,10.41-15.19,15.44-1.46,1.42-3.62,2.12-5.46,3.16L543.31,545l-1.07-.93c-3.8,4.24-7.79,8.33-11.35,12.76C528.13,560.29,525.9,564.17,523.43,567.85Z" transform="translate(-1.03 -1.09)"/><path class="cls-6" d="M522.23,401.88c-.12-1.83-.24-3.67-.37-5.5.08-7.61,1.11-15.35,0-22.78-1.23-8.25-4.44-16.2-6.72-24.3-3.27-11.6,8.68-25.16,19.62-24.45a58,58,0,0,1,27.35,8.91c6,3.68,11.46,8.14,17.16,12.26l.12.14.21.77.32-.54.84-.77c2.72,3.84,5.29,7.81,8.21,11.49,2.38,3,4.72,6.44,7.89,8.32,8.78,5.19,18,9.7,27,14.38a13,13,0,0,0,3.6.7c1.81,2.74,3.73,1.64,6,.45,8.75-4.67,17.4-9.59,26.44-13.64,12.09-5.42,20.72-2.77,29,7.52,2.68,3.33,5.47,6.46,9.9,8.2,8.62,3.37,14.77,17,12.36,25.75-2.63,9.55-2.57,9.23-12.27,7.42-4.53-.85-9.48.54-14-.33-13.3-2.57-26.44-5.92-39.71-8.63-5.71-1.16-11.6-1.49-17.4-2.21-.33-2.29-1.17-3.22-3.57-1.83-1.21.71-2.79.78-4.2,1.13-5-1.35-10-2.84-15-3.95a7.57,7.57,0,0,0-4.52.92c-6.25,3.16-12.41,6.5-18.6,9.77l-9.8-.07a36.78,36.78,0,0,0-5.19-1.29C551.81,408.18,535.93,411.25,522.23,401.88Zm125.28-13.37c10.09,4.05,19.65,9.44,31,9C668.62,392.8,659.89,384.57,647.51,388.51Zm-118-30.16c4.45,5.72,11,7,18.77,7.93Z" transform="translate(-1.03 -1.09)"/><path class="cls-4" d="M771.11,584.37c-.05.57.12,1.33-.19,1.68-10.15,11.47-29.39,16.75-42.61,3.52A21.08,21.08,0,0,0,722,585c2,6.57,2.86,13.81,9.49,17.36a111.63,111.63,0,0,0,16.12,6.58c5.12,1.77,6.08,3,3.94,7.76-3.58,8-8.78,14.63-18.48,18.89,1.16-9,6.12-18-3.27-24.23-1.14-2.64-2.28-5.27-3.43-7.91-1.56-2.64-3.13-5.27-4.67-7.91-.93-1.58-1.81-3.19-2.72-4.78l-1.45.27c.15,2.65.14,5.31.5,7.93a50.7,50.7,0,0,1-8.73,36.38c-5.45,7.93-14.59,10.88-23.51,13.09-13,3.22-26.24,2.56-39.51,1.48-5.64-.46-11.4.78-17.12,1-1.38,0-2.88-.87-4.2-1.59-5.08-2.76-10.1-5.61-15.15-8.43l-.85-.23.54.54c3.41,5,6.88,10,10.2,15.13a13.46,13.46,0,0,1,2.21,6.12c-14.76-14.19-24.7-33.2-44.29-41.7l-1.94,1.73,30.62,38.78-.93,1.46c-11-.74-22.62,2.53-32.6-5-8.15-6.14-15.89-12.83-23.8-19.29a40.22,40.22,0,0,0-6.79-4.87c3.63,9.73,12.34,15.2,18.37,22.87-17.76-9-24.62-27-35.59-42.71,5.15-.34,9.32-.87,13.49-.84,14.77.09,28.5-3,40.1-12.73,2.6-2.18,4.47-2.33,7.68-.14,15.35,10.43,31.93,18,50.94,18.22,16.29.24,31-4.07,43.61-15,8.09-7,16.14-13.93,22.23-23,2.46-3.65,6.52-6.35,10.16-9.06,5.38-4,10.6-1.33,15.48,1.31a85.41,85.41,0,0,1,9.81,6.6c11.18,8.25,19.29,7.9,29.63-1.23,1-.84,2.51-1,3.77-1.5.27,2.07.57,4.15.87,6.23l-1.63,2Z" transform="translate(-1.03 -1.09)"/><path class="cls-4" d="M432.21,639.6c2.76-5.1,5.2-10.43,8.48-15.18,1-1.43,4.49-2.14,6.52-1.7,9.65,2.09,19.09,5.43,28.82,6.88a148.25,148.25,0,0,0,27.32,1c7.49-.3,12.86,1.78,17.11,8.2,8.58,13,20.42,22.59,33.66,30.52,2.8,1.68,2.89,3.36.91,5.67-7,8.12-13.9,16.28-20.89,24.38-.34.38-1.09.4-1.65.59-.4-1.43-1.25-2.89-1.12-4.26.55-6,1.42-11.9,2.1-17.86.22-1.87.25-3.78.3-5.67s0-3.67,0-5.51c-1.27.74-1.63,1.45-1.7,2.19a98.45,98.45,0,0,1-7.93,31.51c-5.74,13-15,22.32-28.71,24.93-20.22,3.86-37.4-2.9-50.8-18.84-10.43-12.41-13.58-26.87-12.85-42.63C432.17,655.75,432.09,647.67,432.21,639.6ZM491.74,713c12.2-7.83,15.58-19.27,15.33-30.88-3.61,6-7.94,13.31-12.32,20.56C493,705.54,489.75,707.8,491.74,713Z" transform="translate(-1.03 -1.09)"/><path class="cls-4" d="M468.49,577.21c.49.75.79,1.84,1.47,2.21,10,5.4,20.86,7,32.05,6.48,14.65-.69,29.32-1.24,43.92-2.57a64.25,64.25,0,0,0,34.15-14.07c5.62-4.46,10.74-4.79,16.61-2.71,8.77,3.1,17.33,6.82,26.11,9.89A132.6,132.6,0,0,0,640,581.13c2.67.55,6.13,1.54,7.83-2.29s.72-7.05-2.35-9.76q-9.21-8.15-18.39-16.34a25.7,25.7,0,0,1-2.33-2.74l.09-.11c1.42.87,2.79,1.85,4.28,2.58,1.69.83,3.48,1.43,5.23,2.13h0l.15.75.78-.71c7.16,4.73,14.12,9.79,21.54,14.07,4.21,2.42,9,4.83,15.11,1-4.14-3.56-7.89-7-11.86-10.16-9.65-7.65-19.07-15.45-26.39-25.57-5.57-7.71-5.08-15.24-.52-22.93.9-1.51,2.63-2.53,4-3.78a9.75,9.75,0,0,1,.08,2.79c-3.61,13.44,2.53,23.21,12,31.65,7.73,6.9,16.15,12.66,26.92,13.28,3.56.2,7.44.23,10.69-1,15.79-5.75,30.27-2.6,44.49,5.11,3.94,2.13,8.55,3.07,12.87,4.48,2.83.92,4.36-.32,5.31-3.06,4.09-11.83,3.74-23.21-3.18-34-2.06-3.22-4.27-6.33-8.78-6,6.5-3,8.37-2.68,13.37,2.19,8.94,8.7,11.67,19.78,11.18,31.59-.28,6.76-3.47,12.82-10.5,15.31a12.47,12.47,0,0,1-7.66.23,165.84,165.84,0,0,1-17.44-7.28c-8.55-4.07-15.48-2.1-22.41,4.05-10.68,9.48-21.62,18.73-33.08,27.23-7.57,5.61-16.38,8.33-26.35,6.27-5.32-1.09-11-.19-16.5-.77-13-1.39-25-6-36.44-12.08-.74-.39-1-1.61-1.53-2.45,1.08-.24,2.35-1,3.21-.63,5.58,2.15,11,4.81,16.61,6.81,24.93,8.84,47.73,4.78,68.53-11.48,5.08-4,10.62-7.32,15.83-11.11,2.34-1.71,4.39-3.8,6.57-5.72L700,561a37.32,37.32,0,0,0-5.25,2.16c-10.67,6.39-20.79,14-32,19.09-18.75,8.54-37.58,5.84-55.66-3.3-3.24-1.64-6.56-3.13-9.79-4.79-4.24-2.19-7.72-1.57-10.93,2.13-2.78,3.22-6.25,5.85-8.94,9.13-9.17,11.2-22.11,14.19-35.22,14.46-20,.42-40.11-.22-60.06-1.77-18.51-1.43-30.72-12.77-38.18-29.25a10.75,10.75,0,0,1,0-8.15c6.56-13.22,14.68-25.7,25.72-35.38,13.14-11.53,28.39-20.17,44.51-27.23,10.41-4.55,21.47-5.74,32.3-5.52,8.14.16,16.21,4,24.32,6.2-4.33-.23-9.14.67-12.88-.94-8.57-3.67-16.64-5.07-25.51-1.08-6.84,3.07-14.39,4.61-21.06,8-11.64,5.86-22.83,12.57-34.21,18.93-9.05,5.06-14.13,13.62-18.92,22.22-3.13,5.61-4.19,11.87-1.9,18.25-3.07,2.18-3,4.28.63,6.49C460.67,572.93,464.62,575,468.49,577.21Z" transform="translate(-1.03 -1.09)"/><path class="cls-4" d="M607.64,785.86c1.19.8,2.91,1.33,3.47,2.45,4.22,8.37,8.45,16.76,12.15,25.37,1.22,2.84.89,6.35,1.27,9.55l1.27,1.7,0-.07c1,2.08,1.5,4-1.63,4.58-11.35,1.94-22.38,5.73-34.12,5.43-6.47-.17-8.46-1-10.69-7-5.24-14.1-10.12-28.34-15.51-42.37-6.15-16-13.7-31.25-25.34-44.12l.13.14-3-3.66c1.42-2.72,2.84-5.45,4.8-9.23a64,64,0,0,1,5.83,5.81c10.06,13.07,15.39,28.46,21,43.68,4.73,12.87,9,25.93,13.64,38.83a66.64,66.64,0,0,0,5.7,11.93c2.78,4.57,6.61,5,10.66,2.55-12.24-35.4-24.42-70.59-36.87-106.58l5.43,3.34c.83-4.63,1.57-8.66,2.26-12.69q2.58-14.82,5.11-29.67c.58-3.38,2.12-4.9,6-5,5.09-.08,10.14-1.49,15.24-2,2.26-.21,4.6.52,6.91.82l-.31.34-9,1.84c-.36,2.28-.88,4.58-1.07,6.92-.74,9.44-1.76,18.88-1.93,28.33-.16,9-.48,18.14,1.27,26.83s5.94,16.68,9.07,25l-.08-.1c4.74,11,9.4,22.09,14.24,33.07,2.13,4.83,4.62,9.51,7,14.25l.63-.3Q614.33,800.88,607.64,785.86Z" transform="translate(-1.03 -1.09)"/><path class="cls-4" d="M271.37,497.57c0,2.46.06,4.93-.15,7.37a71.88,71.88,0,0,0,6.27,35.36c6.55,14.9,19.64,21.64,35.49,22.84a58.37,58.37,0,0,0,28.64-4.91c11.73-5.31,23.38-4.8,35.56-2.1a169.4,169.4,0,0,0,27.95,4.07c10.88.56,20-4.53,26.73-12.86,8.49-10.51,1.27-25.78-13.27-27.56a57.73,57.73,0,0,0-21.46,1.07c-17.88,4.78-36,9.1-52.6,17.86-6.93,3.66-13.73,7.57-20.72,11.11-7.28,3.7-14.23,2.36-20.76-2.13,12.1,2.33,22.35-2,32.36-8.31,18.12-11.44,38.84-16.34,59-22.79,12.39-4,24.6-4.87,36.28,1.2,5.59,2.9,10.51,7.32,15.13,11.7,1.33,1.26,1.48,5.25.52,7.14-2.45,4.82-6.27,8.94-8.73,13.75-2.85,5.54-4.71,11.59-7.28,17.3a9.69,9.69,0,0,1-3.76,4.18c-10.53,6-21.78,5.85-33.07,3-9.91-2.51-19.68-5.59-29.5-8.47-7.23-2.12-13.69-2.49-20.18,3.16-13.94,12.12-29.56,12.6-46.44,5.9-21.19-8.41-28.47-25.78-31.89-46.13A45.33,45.33,0,0,1,271.37,497.57Z" transform="translate(-1.03 -1.09)"/><path class="cls-4" d="M627.79,405c5.8.72,11.69,1,17.4,2.21,13.27,2.71,26.41,6.06,39.71,8.63,4.52.87,9.47-.52,14,.33,9.7,1.81,9.64,2.13,12.27-7.42,2.41-8.76-3.74-22.38-12.36-25.75-4.43-1.74-7.22-4.87-9.9-8.2-8.28-10.29-16.91-12.94-29-7.52-9,4.05-17.69,9-26.44,13.64-2.25,1.19-4.17,2.29-6-.45,9.81-5.7,19.54-11.53,29.42-17.07,14.72-8.26,28.57-2.2,39,8.87a80.62,80.62,0,0,0,19.4,15,18,18,0,0,1,9,13H719c-1.19,6.45,1.83,10.17,6.14,13.25,7.86,7,16.16,13.51,23.46,21,9.69,10,15.37,22.22,15.89,36.37.41,11,1.26,22.15.41,33.11-.91,11.56,2.06,21.49,7.65,31.33,1.91,3.37,1.56,8,2.25,12.09-.59-1.1-1.27-2.17-1.76-3.32-3-7.17-6-14.35-9.06-21.53-7.41-1.38-4.48-7.41-5.55-11.82-1.34-5.48-3.81-10.68-5.25-16.14-1.95-7.43-3.28-15-5.14-22.48-.37-1.51-.47-4.79-3.82-2.74a55.87,55.87,0,0,1-3.36-5.64c-6.06-13.52-17.27-19-31.25-20.12-7.36-.62-14.71-1.57-22.06-1.57-2.27,0-5.09,2.22-6.66,4.21-2.3,2.92-3.63,3.26-6.74.84-11.16-8.71-22.64-16.85-37.36-18.72-8.95-1.14-17.82-2.95-26.71-4.57-.83-.15-1.52-1.1-2.28-1.69,6.33.29,12.79-.15,19,1,12.33,2.32,24.51,5.47,36.73,8.39a24.81,24.81,0,0,1,5.69,2.31c5.78,3,11,4.91,18.41,3.85,11-1.58,22.69-.61,33.85,1,16.48,2.33,26.13,13.23,31.34,28.64a51.48,51.48,0,0,0,6.89,12.8c1.23-7.82-.44-15.12-2.81-22.31-6.9-20.87-22.45-29.71-43.35-31.26-3.09-.23-6.1-1.56-9.2-1.94a52.08,52.08,0,0,0-10.21-.41c-7.11.54-13.91,1.77-21.2-.83-11.55-4.11-23.57-6.91-35.44-10.09C632.79,412.06,628.66,410.54,627.79,405Z" transform="translate(-1.03 -1.09)"/><path class="cls-1" d="M432.21,639.6c-.12,8.07,0,16.15-.42,24.2-.73,15.76,2.42,30.22,12.85,42.63,13.4,15.94,30.58,22.7,50.8,18.84,13.69-2.61,23-12,28.71-24.93a98.45,98.45,0,0,0,7.93-31.51c.07-.74.43-1.45,1.7-2.19,0,1.84,0,3.67,0,5.51s-.08,3.8-.3,5.67c-.68,6-1.55,11.89-2.1,17.86-.13,1.37.72,2.83,1.12,4.26l-.09,1.32c-1.18,1.8-2.68,3.46-3.48,5.42-3.63,8.85-7.41,17.94-16.65,22a82,82,0,0,1-22.57,6.4c-20.26,2.54-50-8.32-60.33-32.94-7.69-18.26-7.06-36.18-.89-54.43.79-2.35,1.36-4.77,2-7.16Z" transform="translate(-1.03 -1.09)"/><path class="cls-1" d="M365.67,583.28l-.24-1.29c5.09,1,10.24,1.8,15.25,3.12,16.48,4.33,33.07,5.33,49.6,1,4.14-1.09,6.17-.3,8.77,2.58,11.21,12.47,24.82,20.9,41.69,23.15,5.46.72,11,.69,16.52,1,2.95.16,5.31.94,4.95,4.89-22.66,3.74-43.45-.24-61.49-14.84-4.86-3.93-9.67-6.24-15.92-5.54a44,44,0,0,1-9.44.4C398,595.87,381.05,592.16,365.67,583.28Z" transform="translate(-1.03 -1.09)"/><path class="cls-4" d="M549,481.51l4.2-.95c.12-2.4-.64-5.79.51-6.66a11.42,11.42,0,0,1,8-2.2c11.86,2.22,23.5,5.75,35.42,7.42a108,108,0,0,0,29,.44c5.75-.77,11-5.51,16.43-8.49,1.48-.8,2.93-1.65,4.4-2.48-2.24,7.86-8.67,12.42-14,17.88-10.4,10.66-23,7.51-35,4.83-12.22-2.75-24-7.31-36.06-10.94-1.73-.52-3.69-.31-5.54-.43l-.15,1.3,2.79.85-.09.86Z" transform="translate(-1.03 -1.09)"/><path class="cls-1" d="M774.79,547.45c-.69-4.07-.34-8.72-2.25-12.09C767,525.52,764,515.59,764.89,504c.85-11,0-22.08-.41-33.11-.52-14.15-6.2-26.37-15.89-36.37-7.3-7.53-15.6-14.07-23.46-21.05l5.29-4.44c7.22,7.82,14.92,15.26,21.53,23.58,6.94,8.74,12.52,18.45,14.21,29.86A9.58,9.58,0,0,0,767.3,465c.38,3.82,1,7.63,1.1,11.46.25,11.67.13,23.35.51,35a22.22,22.22,0,0,0,2.33,8.86c2.3,4.7,5.86,8.85,7.76,13.68,4.25,10.82,3.77,21.9,0,32.85-1.31,3.81-2.68,7.6-4,11.4l-2.29,4.3c-.29-2.1-.59-4.18-.86-6.25.24-1.9.46-3.8.69-5.7q.72-3.83,1.46-7.65c.15-1,.31-1.91.46-2.86s.19-2,.28-3Z" transform="translate(-1.03 -1.09)"/><path class="cls-4" d="M361.44,474.89c8.79,11.82,21.31,15.44,35.24,17.06,10.33,1.2,20.48,4,31.32,6.27,5.68-19.27,13.38-38.63,11.06-60.35l1.89,4c0,4.61-.42,9.28.15,13.82,1.9,15.05.31,29.52-6.06,43.4-1.6,3.49-3.51,4.81-7.7,3.93-11-2.31-22.06-4-32.93.87a4.72,4.72,0,0,1-3.17,0c-10-3.5-19-8.86-25.44-17.29C363.38,483.43,362.84,478.83,361.44,474.89Z" transform="translate(-1.03 -1.09)"/><path class="cls-4" d="M365.67,583.28c15.38,8.88,32.29,12.59,49.69,14.48a44,44,0,0,0,9.44-.4c6.25-.7,11.06,1.61,15.92,5.54,18,14.6,38.83,18.58,61.49,14.84.36-4-2-4.73-4.95-4.89-5.51-.31-11.06-.28-16.52-1-16.87-2.25-30.48-10.68-41.69-23.15-2.6-2.88-4.63-3.67-8.77-2.58-16.53,4.32-33.12,3.32-49.6-1-5-1.32-10.16-2.09-15.25-3.12,0-.45.09-1.3.12-1.3,4,0,8.45-.88,12,.48,14.77,5.65,30,4.71,45.22,4.1,2.45-.09,4.87-1.19,7.26-2,4.13-1.33,7.49-.89,10.54,2.74,10.73,12.8,24.37,20.68,41,23.05,5.75.82,11.57,1.13,17.34,1.8,3.47.4,5.49,2.35,5.15,6s-3.2,3.49-6,3.83c-10.41,1.27-20.72,1.13-30.9-1.67-11.06-3-21.41-7.58-29.94-15.37-2.93-2.66-5.95-3.27-9.5-3.05-18.15,1.1-35.28-3.41-52.1-9.56-2.36-.87-4.88-1.64-6.87-3.09C367.34,587,366.68,584.9,365.67,583.28Z" transform="translate(-1.03 -1.09)"/><path class="cls-1" d="M538.47,741.39c11.64,12.87,19.19,28.13,25.34,44.12,5.39,14,10.27,28.27,15.51,42.37,2.23,6,4.22,6.82,10.69,7,11.74.3,22.77-3.49,34.12-5.43,3.13-.54,2.64-2.5,1.63-4.58l1,1.25,1.15,4.67a46.32,46.32,0,0,1-6.38,2.41c-12.59,2.81-25.26,5.32-37.83,8.27-3.95.92-5.76-.26-7-3.87-5-14.59-9.49-29.39-15.35-43.63-7-17-15.17-33.52-22.84-50.25C538.48,742.94,538.47,742.17,538.47,741.39Z" transform="translate(-1.03 -1.09)"/><path class="cls-4" d="M449.36,473.12l3.63-4.9c.61,10.58,1.18,20.35,1.72,30.12.1,1.74-.09,3.49.11,5.2.43,3.76,2.36,4.73,5.41,2.41,4.51-3.42,8.86-7.07,13.06-10.88,9.69-8.8,21.39-12.31,34.08-13.24,4.37-.32,8.76-.3,13.14-.44-6.18,2.25-12.52,4.15-18.5,6.83-12.73,5.69-26.05,10.52-35.92,21.08-2.12,2.27-3.75,5-5.65,7.48-1.63,2.15-3.28,2.45-5.46.43-3.34-3.1-7.07-5.8-10.34-9-1-.94-1.84-3.28-1.34-4.29C448,494.17,449,483.72,449.36,473.12Z" transform="translate(-1.03 -1.09)"/><path class="cls-4" d="M387.44,403.74c1.36,1.38,2.47,3.33,4.12,4.05,13.54,5.9,26.35,4.73,39-3.23,7.79-4.89,16.46-8.39,24.84-12.29,1.8-.84,4.39-1.82,5.4,1.49-13,8.12-25.75,16.62-39,24.25-10.24,5.89-28.64,2.53-37.06-5.77C382,409.48,382.51,407.73,387.44,403.74Z" transform="translate(-1.03 -1.09)"/><path class="cls-4" d="M579.27,346c-5.7-4.12-11.19-8.58-17.16-12.26a58,58,0,0,0-27.35-8.91c-10.94-.71-22.89,12.85-19.62,24.45,2.28,8.1,5.49,16.05,6.72,24.3,1.11,7.43.08,15.17,0,22.78-.69-4.1-1.86-8.18-2-12.3-.36-12.74-4.35-24.31-9.92-35.62-3.7-7.53-1.58-13.85,4.77-19.28,12.1-10.35,28-12.74,44-2.84,8.33,5.16,15.84,10.58,21.52,18.51Z" transform="translate(-1.03 -1.09)"/><path class="cls-1" d="M726.35,603.4c1.15,2.64,2.29,5.27,3.43,7.91a14.54,14.54,0,0,0-1,3.37c-.35,8.46-2.32,16.44-6.83,23.69-3.77,7.35-8.88,13.59-16,17.92-19.58,12-40.29,12-61.51,5.4a43.26,43.26,0,0,1-5.91-2.84,5.55,5.55,0,0,1,4.08-.31,79.29,79.29,0,0,0,43,.65c14.26-3.63,27-9.93,35-23.22C727.15,625.93,727.74,614.84,726.35,603.4Z" transform="translate(-1.03 -1.09)"/><path class="cls-6" d="M637.23,354.55,622,359.39c-4.88-1.63-9.25-4.61-14.92-4-3.51.36-8-5.93-7.9-9.82.11-3.34,3.55-5.87,8.24-6,3.61-.11,7.23-.17,10.84-.25l1.66.66c2.2,1,4.45,1.94,6.59,3.08,2.73,1.45,5.81,2.65,7.93,4.76C636,349.38,636.33,352.25,637.23,354.55Z" transform="translate(-1.03 -1.09)"/><path class="cls-4" d="M430.51,640.59c-.67,2.39-1.24,4.81-2,7.16-6.17,18.25-6.8,36.17.89,54.43,10.37,24.62,40.07,35.48,60.33,32.94a82,82,0,0,0,22.57-6.4c9.24-4.1,13-13.19,16.65-22,.8-2,2.3-3.62,3.48-5.42-3.08,14.43-8.85,26.4-24.17,32.09-8.9,3.31-17.93,5.62-27.05,4.82a87,87,0,0,1-24.81-6.52C436.53,723.51,426,707.56,422.15,687c-2.73-14.4-.59-28.42,4.65-42C427.46,643.33,429.25,642.06,430.51,640.59Z" transform="translate(-1.03 -1.09)"/><path class="cls-4" d="M287.21,516.67c.54-1.73,1.09-3.46,1.83-5.82,1.19,2.21,2,3.82,2.93,5.42,8.36,15.18,20.18,18.53,35.15,9.64,11.39-6.76,23.37-11.78,36.57-13.44,2.89-.36,5.91.26,8.87.42-3.1,1.05-6.13,2.57-9.31,3.05-13.76,2.09-25.39,8.7-36.76,16.2a32.7,32.7,0,0,1-12.43,5.26c-10.39,1.62-18.87-3.95-23.15-13.93A77.29,77.29,0,0,0,287.21,516.67Z" transform="translate(-1.03 -1.09)"/><path class="cls-4" d="M720.59,636c-8,13.29-20.69,19.59-35,23.22a79.29,79.29,0,0,1-43-.65,5.55,5.55,0,0,0-4.08.31,43.26,43.26,0,0,0,5.91,2.84c21.22,6.6,41.93,6.56,61.51-5.4,7.09-4.33,12.2-10.57,16-17.92,3.22,1.09,1.31,2.93.49,4.35a46.89,46.89,0,0,1-22.71,19.95c-18.46,7.86-37.39,8.05-56.15,1.44-4.24-1.49-7.5-5.75-11.21-8.74l.85-1.65c3.67.81,7.39,1.44,11,2.45,21.48,6,41.83,2.93,61-7.94,3.85-2.19,6.66-6.16,10.12-9.12A36,36,0,0,1,720.59,636Z" transform="translate(-1.03 -1.09)"/><path class="cls-4" d="M357.29,590.82c9.69,5.49,21.49,7.22,29.9,15.57-5.71,5.24-11.75,4.12-17.43,3.54-11.71-1.19-23.39-2.72-35-4.49a63.37,63.37,0,0,1-12.64-3.66c-8.91-3.37-17.72-7-26.56-10.6a4.48,4.48,0,0,1-2.25-1.64,12.15,12.15,0,0,1-.83-3.37c1.1-.17,2.3-.71,3.3-.46,15.89,4,31.68,4.22,47.36-1,5-1.65,8.43.55,11.38,4.23l-.69.7c-4.48-3.61-9.17-3.51-14.4-1.51a45.34,45.34,0,0,1-11.06,2.3,130,130,0,0,1-14.63.78c-4.63,0-9.26-.57-13.56-.86,26,12.87,54,17.52,83.15,15.86-3.15-2.24-6.62-3.55-9.88-5.28-5.64-3-11.16-6.25-16.72-9.4C356.91,591.32,357.11,591.07,357.29,590.82Z" transform="translate(-1.03 -1.09)"/><path class="cls-4" d="M330,393.46l-.2-1.44c-4.28,3.57-8.68,7.32-13.18,11-10.93,8.83-20.9,18.52-23.74,33-1.42,7.19-1.62,14.67-1.8,22-.06,2.07,1.52,4.5,3,6.23,6.25,7.42,13.07,14.2,22.54,17.55a12.15,12.15,0,0,1,2.31,1.47c-11.5.25-28.58-10.2-32.26-20.66-2.79-7.93-1.13-16,1.88-23.76L295.13,422c1.78-2.55,3.16-5.55,5.41-7.57,9.78-8.81,19.81-17.34,29.77-26,.17-.15.59,0,1.78,0Z" transform="translate(-1.03 -1.09)"/><path class="cls-4" d="M538.48,743.71c7.67,16.73,15.85,33.24,22.84,50.25,5.86,14.24,10.36,29,15.35,43.63,1.23,3.61,3,4.79,7,3.87,12.57-3,25.24-5.46,37.83-8.27a46.32,46.32,0,0,0,6.38-2.41l-1.15-4.67c.88,1.48,2.84,3.54,2.42,4.3-1.11,2-3,4.22-5,5a72.6,72.6,0,0,1-12.27,3.13c-9.2,1.85-18.42,3.54-27.63,5.32-5.51,1.07-7.54.21-9.65-4.92-1.84-4.48-3.33-9.12-4.9-13.71-2.24-6.5-4.15-13.12-6.66-19.5q-8.12-20.58-16.75-40.94c-2.44-5.77-5.59-11.24-8.16-17C537.6,746.76,538.32,745.11,538.48,743.71Z" transform="translate(-1.03 -1.09)"/><path class="cls-4" d="M624.77,550a19.82,19.82,0,0,1-3.9-1.5,59,59,0,0,0-33.76-9.17c-8.28.17-15.89,2.58-22.08,8.77a233.61,233.61,0,0,1-19.43,17.81c-2.91,2.32-7.24,2.88-10.92,4.23,12.91-10,23.55-22.73,38-30.81,10.78-6,21.79-6.18,33.16-2.27l2.9,1.41,0,0c1.72,1.44,3.34,3,5.17,4.28,3.58,2.48,7.29,4.79,10.94,7.17Z" transform="translate(-1.03 -1.09)"/><path class="cls-4" d="M706.14,516.54c-1.06-.57-2.1-1.22-3.2-1.71a43.19,43.19,0,0,1-9.24-5.05c6.95,0,14,.81,20.83-.19,10.73-1.59,17.36-8.81,21.62-18.54,1.22-2.78,3.29-5.17,5-7.74C744.35,507.23,728,517.31,706.14,516.54Z" transform="translate(-1.03 -1.09)"/><path class="cls-4" d="M415.61,354.6c-13.75-2.7-26.56.58-39.67,4.78-11.6,3.72-17.27,12.8-24.12,21.18-1,1.19-2.06,2.28-3.1,3.41l4.23-9.4c4-4.34,7.39-9.61,12.17-12.79,7-4.67,14.67-8.9,22.66-11.33,7.63-2.31,16-2.64,24.11-2.76C417.91,347.6,418.15,348.81,415.61,354.6Z" transform="translate(-1.03 -1.09)"/><path class="cls-4" d="M448.42,409.46c-5.85,8.81-12.16,17.17-21.43,22.76-8,4.81-16.47,5.71-25.45,3.71-11.59-2.57-23.2-4-34.82-.13,8-7.45,17.69-6.92,27.45-5.88,5.62.6,11.19,1.72,16.81,2.26,6.8.66,12.73-1.74,17.78-6.17,4.85-4.25,9.44-8.79,14.27-13.06A41.78,41.78,0,0,1,448.42,409.46Z" transform="translate(-1.03 -1.09)"/><path class="cls-4" d="M501.5,330c-10-5-21-5.17-31.05-2.37-16,4.48-29.68,13.47-38.95,28-3.12,4.91-6.65,9.57-10.11,14.26a18.33,18.33,0,0,1-3.1,2.68c.61-2.07.89-4.3,1.87-6.17,7.73-14.75,18.5-26.24,33.68-33.93,10.63-5.38,21.34-9.53,33.24-9.68,4.3-.05,8.68,1.22,12.92,2.29C502.56,325.73,503.76,327.49,501.5,330Z" transform="translate(-1.03 -1.09)"/><path class="cls-4" d="M775,578.23c1.34-3.8,2.71-7.59,4-11.4,3.76-11,4.24-22,0-32.85-1.9-4.83-5.46-9-7.76-13.68a22.22,22.22,0,0,1-2.33-8.86c-.38-11.67-.26-23.35-.51-35-.09-3.83-.72-7.64-1.1-11.46,4.14,3.15,3.79,8,4,12.22.4,10.54-.28,21.12.41,31.63a31.49,31.49,0,0,0,4.53,14c7.42,12,10.23,24.59,7,38.29A107.35,107.35,0,0,1,778.06,576C777.67,577,776,577.51,775,578.23Z" transform="translate(-1.03 -1.09)"/><path class="cls-4" d="M380.33,511.18c-3.56-2.17-7.36-4-10.64-6.56-9.07-7-15.21-16.54-21.05-26.17-3.22-5.3-6.5-10.91-8-16.82-2.7-10.41.94-19.62,8.28-27.93l1.14,2.53c-2,7-4.89,14-5.76,21.16-1.24,10.24,4.08,18.59,9.91,26.71a66.11,66.11,0,0,0,26.48,22.06c1.82.84,3.69,1.6,7,3Z" transform="translate(-1.03 -1.09)"/><path class="cls-4" d="M618.21,339.28c-3.61.08-7.23.14-10.84.25-4.69.14-8.13,2.67-8.24,6-.13,3.89,4.39,10.18,7.9,9.82,5.67-.58,10,2.4,14.92,4-5,.94-10,2.36-15,2.56-1.8.07-4.37-2.42-5.47-4.37a91,91,0,0,1-6-13.67,5.59,5.59,0,0,1,1.06-4.6C603.75,330.77,610.78,330.84,618.21,339.28Z" transform="translate(-1.03 -1.09)"/><path class="cls-4" d="M601.24,679.75c.26,2,1.35,4.31.65,5.83-6.15,13.35-8.28,27.66-9.25,42-.48,7.13,1.85,14.52,3.34,21.71,1.22,5.9,3.11,11.66,4.59,17.51.15.59-.47,1.38-.74,2.08l-.32.21-.32-.2.08.1c-.46-1.33-.88-2.69-1.4-4-8-20.05-10.61-40.52-4.43-61.57,2.3-7.83,5-15.55,7.49-23.32Z" transform="translate(-1.03 -1.09)"/><path class="cls-4" d="M605.77,421.94c-22.26,4-44.74,3.18-67.19,3-1.9,0-3.81-.81-5.71-1.25,4.92-.83,9.83-2.21,14.78-2.37,11.81-.4,23.64-.15,35.47-.31,6.29-.08,12.58-.57,18.87-.65C603.24,420.37,604.51,421.4,605.77,421.94Z" transform="translate(-1.03 -1.09)"/><path class="cls-4" d="M522.23,401.88c13.7,9.37,29.58,6.3,44.65,7.84a36.78,36.78,0,0,1,5.19,1.29q-22.65.66-45.31,1.31c-1.85.06-3.7,0-6.67,0C520.9,408.35,521.57,405.12,522.23,401.88Z" transform="translate(-1.03 -1.09)"/><path class="cls-4" d="M581.87,411.08c6.19-3.27,12.35-6.61,18.6-9.77a7.57,7.57,0,0,1,4.52-.92c5.06,1.11,10,2.6,15,3.95C607.72,409,595.6,414.58,581.87,411.08Z" transform="translate(-1.03 -1.09)"/><path class="cls-4" d="M637.23,354.55c-.9-2.3-1.24-5.17-2.84-6.77-2.12-2.11-5.2-3.31-7.93-4.76-2.14-1.14-4.39-2.07-6.59-3.08,8.35-4.67,14.69-2,22.48,5.87,3.82,3.85,3.06,5.87-2.05,7.67Z" transform="translate(-1.03 -1.09)"/><path class="cls-4" d="M655.6,470.19c4.92-1.27,9.77-3.13,14.77-3.65,5.69-.58,11.49,0,17.25.12-4.7,1.36-9.36,2.85-14.1,4-6.35,1.59-12.75,3-19.66,4.54C654.46,473.52,655,471.85,655.6,470.19Z" transform="translate(-1.03 -1.09)"/><path class="cls-4" d="M355.43,427.57c1.36-3.85,2.23-8,4.2-11.49,2.17-3.84,5.36-7.11,7.9-10.35l3,2.73c-3.14,5.2-6.07,10.53-9.53,15.51C359.79,425.64,357.31,426.4,355.43,427.57Z" transform="translate(-1.03 -1.09)"/><path class="cls-6" d="M730.42,409.06l-5.29,4.44c-4.31-3.07-7.33-6.79-6.14-13.24h5.32Z" transform="translate(-1.03 -1.09)"/><path class="cls-1" d="M599.19,768.89l.32.2.32-.21q3.9,8.49,7.81,17,6.69,15,13.37,30.06l-.63.3c-2.33-4.74-4.82-9.42-7-14.25C608.59,791,603.93,779.92,599.19,768.89Z" transform="translate(-1.03 -1.09)"/><path class="cls-6" d="M624.86,549.89c-3.65-2.38-7.36-4.69-10.94-7.17-1.83-1.27-3.45-2.84-5.17-4.28,2.86.91,6.13,1.21,8.48,2.84,5.93,4.12,11.46,8.84,17.14,13.32-1.75-.7-3.54-1.3-5.23-2.13C627.65,551.74,626.28,550.76,624.86,549.89Z" transform="translate(-1.03 -1.09)"/><path class="cls-4" d="M302.44,493c-3.29-.44-6.56-1.06-9.85-1.3-5.5-.4-11-.55-16.51-.81,2.28-.91,4.73-2.86,6.8-2.52C289.47,489.42,295.93,491.35,302.44,493Z" transform="translate(-1.03 -1.09)"/><path class="cls-4" d="M523.43,567.85c2.47-3.68,4.7-7.56,7.46-11,3.56-4.43,7.55-8.52,11.35-12.76l1.07.93L531,560.37Z" transform="translate(-1.03 -1.09)"/><path class="cls-1" d="M295.13,422,288.5,438.8Z" transform="translate(-1.03 -1.09)"/><path class="cls-1" d="M353,374.57l-4.23,9.4.19-.07-1.49,1-4.15,3.77Z" transform="translate(-1.03 -1.09)"/><path class="cls-1" d="M396.52,393.85l9.91-10.11.24,1.2.08-.07-1,1,0-.06-1.92,1.94,0,0-1.95,1.9,0,0-1,1,0,0-1.92,1.95.06-.05Z" transform="translate(-1.03 -1.09)"/><path class="cls-4" d="M774,562.93q-.74,3.83-1.46,7.65C771,567.77,771.67,564.24,774,562.93Z" transform="translate(-1.03 -1.09)"/><path class="cls-4" d="M530.45,423.76l-7.09.55Z" transform="translate(-1.03 -1.09)"/><path class="cls-4" d="M774.73,557.06c-.09,1-.18,2-.28,3l-1.35-1.73Z" transform="translate(-1.03 -1.09)"/><path class="cls-4" d="M319.54,483.47l6.64,1.95Z" transform="translate(-1.03 -1.09)"/><path class="cls-4" d="M692.09,466.52l7.71.17Z" transform="translate(-1.03 -1.09)"/><path class="cls-1" d="M535.57,737.87l3,3.66-3.91-3.47a2.26,2.26,0,0,1,.42-.19A2.36,2.36,0,0,1,535.57,737.87Z" transform="translate(-1.03 -1.09)"/><path class="cls-4" d="M330,494.28l-6.79.17Z" transform="translate(-1.03 -1.09)"/><path class="cls-4" d="M406.67,384.94l-.24-1.2,2.41-1.29Z" transform="translate(-1.03 -1.09)"/><path class="cls-4" d="M396.52,393.85l2.62-1.41-3.08,2.28C396.21,394.43,396.36,394.14,396.52,393.85Z" transform="translate(-1.03 -1.09)"/><path class="cls-4" d="M354.5,589l2.79,1.86c-.18.25-.38.5-.58.73l-2.9-1.89Z" transform="translate(-1.03 -1.09)"/><path class="cls-4" d="M543.2,480.8l4.06.38Z" transform="translate(-1.03 -1.09)"/><path class="cls-4" d="M702.83,467.23l2.75.73Z" transform="translate(-1.03 -1.09)"/><path class="cls-6" d="M608.78,538.47l-2.9-1.41Z" transform="translate(-1.03 -1.09)"/><path class="cls-1" d="M625.8,824.93l-1.27-1.7Z" transform="translate(-1.03 -1.09)"/><path class="cls-4" d="M311.89,494.09l-1.75-.12Z" transform="translate(-1.03 -1.09)"/><path class="cls-4" d="M309.07,493.91l-2-.24Z" transform="translate(-1.03 -1.09)"/><path class="cls-4" d="M395.35,395.54l-1.12,1.26Z" transform="translate(-1.03 -1.09)"/><path class="cls-1" d="M343.19,388.77c-.32.59-.65,1.17-1,1.76C342.54,389.94,342.87,389.36,343.19,388.77Z" transform="translate(-1.03 -1.09)"/><path class="cls-4" d="M743.5,473.26l.33-1.26Z" transform="translate(-1.03 -1.09)"/><path class="cls-4" d="M449.7,408.18l-.83.77Z" transform="translate(-1.03 -1.09)"/><path class="cls-4" d="M519.72,424.82l-.33.25-.4,0Z" transform="translate(-1.03 -1.09)"/><path class="cls-4" d="M393.52,397.51l-.87.68Z" transform="translate(-1.03 -1.09)"/><path class="cls-4" d="M301.43,547.2l-1.1-.33Z" transform="translate(-1.03 -1.09)"/><path class="cls-4" d="M409.82,381.68l-.75.65Z" transform="translate(-1.03 -1.09)"/><path class="cls-4" d="M388.85,402.24l-.81.87Z" transform="translate(-1.03 -1.09)"/><path class="cls-4" d="M452.5,405.4l-.59.65Z" transform="translate(-1.03 -1.09)"/><path class="cls-4" d="M462.56,393.79l1.09-.28Z" transform="translate(-1.03 -1.09)"/><path class="cls-1" d="M771.11,584.37l0,.12Z" transform="translate(-1.03 -1.09)"/><path class="cls-4" d="M451.57,406.41l-.63.66Z" transform="translate(-1.03 -1.09)"/><path class="cls-4" d="M698.64,516.65l1.21,0Z" transform="translate(-1.03 -1.09)"/><path class="cls-6" d="M635.28,554.63l-.78.71-.15-.75Z" transform="translate(-1.03 -1.09)"/><path class="cls-6" d="M579.27,346l1-1.17a2,2,0,0,1,.53.77l-.84.77a1,1,0,0,1-.53-.23Z" transform="translate(-1.03 -1.09)"/><path class="cls-4" d="M500.48,332.59l.42-1Z" transform="translate(-1.03 -1.09)"/><path class="cls-4" d="M399.08,392.49l1.92-1.95Z" transform="translate(-1.03 -1.09)"/><path class="cls-4" d="M401.92,389.62l1.95-1.9Z" transform="translate(-1.03 -1.09)"/><path class="cls-4" d="M403.84,387.76l1.92-1.94Z" transform="translate(-1.03 -1.09)"/><path class="cls-4" d="M401,390.58l1-1Z" transform="translate(-1.03 -1.09)"/><path class="cls-4" d="M405.72,385.88l1-1Z" transform="translate(-1.03 -1.09)"/><path class="cls-4" d="M347.42,384.93l1.49-1Z" transform="translate(-1.03 -1.09)"/><path class="cls-2" d="M468.49,577.21c-3.87-2.2-7.82-4.28-11.6-6.62-3.59-2.21-3.7-4.31-.63-6.49,9.09,9,20.4,10.57,32.47,9.76,1.37-.09,2.79.62,5,1.16C485,579.15,476.67,577.35,468.49,577.21Z" transform="translate(-1.03 -1.09)"/><path class="cls-2" d="M647.51,388.51c12.38-3.94,21.11,4.29,31,9C667.16,398,657.6,392.56,647.51,388.51Z" transform="translate(-1.03 -1.09)"/><path class="cls-4" d="M529.49,358.35l18.77,7.93C540.46,365.35,533.94,364.07,529.49,358.35Z" transform="translate(-1.03 -1.09)"/><path class="cls-4" d="M579.39,346.16a1,1,0,0,0,.53.23l-.32.54Z" transform="translate(-1.03 -1.09)"/><path class="cls-2" d="M609.48,641.12l-.54-.54.85.23Z" transform="translate(-1.03 -1.09)"/><path class="cls-1" d="M491.74,713c-2-5.2,1.28-7.46,3-10.32,4.38-7.25,8.71-14.53,12.32-20.56C507.32,693.73,503.94,705.17,491.74,713Z" transform="translate(-1.03 -1.09)"/><path class="cls-1" d="M600.93,680.09c-2.51,7.77-5.19,15.49-7.49,23.32-6.18,21.05-3.57,41.52,4.43,61.57.52,1.32.94,2.68,1.4,4-3.13-8.3-7.35-16.39-9.07-25s-1.43-17.87-1.27-26.83c.17-9.45,1.19-18.89,1.93-28.33.19-2.34.71-4.64,1.07-6.92Z" transform="translate(-1.03 -1.09)"/><path class="cls-1" d="M353.81,589.66l2.9,1.89c5.56,3.15,11.08,6.4,16.72,9.4,3.26,1.73,6.73,3,9.88,5.28-29.18,1.66-57.1-3-83.15-15.86,4.3.29,8.93.84,13.56.86a130,130,0,0,0,14.63-.78,45.34,45.34,0,0,0,11.06-2.3C344.64,586.15,349.33,586.05,353.81,589.66Z" transform="translate(-1.03 -1.09)"/></svg>